<svg width="290" height="148" viewBox="0 0 290 148" fill="none" xmlns="http://www.w3.org/2000/svg">
<path fill-rule="evenodd" clip-rule="evenodd" d="M23.7822 96.8903L24.2226 97.3894L24.8686 98.1137L25.6613 98.9749L26.591 100.022L27.6382 101.167L28.7637 102.41L29.9674 103.721L31.1908 105.043L32.3652 106.266L33.5885 107.558L34.7629 108.83L35.8982 109.995L36.8769 111.022L37.6989 111.844L38.2861 112.432L38.5797 112.706L39.4801 113.635L40.0575 114.193L40.2728 114.379L40.4196 114.477H40.5273H40.6349H40.7035L40.7524 114.428L40.8209 114.35V114.174V113.919V113.567V112.451V95.8138V95.2266V94.7177V94.4926V94.3262L40.8698 94.1305L40.9285 93.9837V93.8467L40.9971 93.739L41.0851 93.6118L41.183 93.5237L41.2907 93.4356L41.4277 93.3671L41.5745 93.3182H41.7506L41.9757 93.2399H42.1519H42.3085H42.5531H42.651H42.7097V93.1224H42.651L42.5923 93.0735H42.4259H41.6625L40.9775 93.1224H40.4294H39.3627H38.981H38.5504H38.1002H36.8964H36.7301L36.6615 93.1714H36.6028V93.2301V93.3182V93.3867H36.6518H37.0628H37.4151L37.8066 93.4356L38.2176 93.5041H38.3742L38.5014 93.5726L38.6385 93.6607L38.7559 93.739L38.844 93.8369L38.9321 93.9543L39.0104 94.0718L39.0886 94.2186V94.3947V94.5513V94.7862V95.0015V95.5495V96.1661L39.4116 110.572L38.9712 110.112L38.3644 109.447L37.6206 108.605L36.7301 107.626L35.7514 106.569L34.714 105.424L33.6766 104.309L32.6196 103.154L31.1908 101.392L29.6053 99.7089L28.1373 98.1235L26.8161 96.7142L25.6711 95.481L24.7609 94.5024L24.115 93.8075L23.7822 93.4258L23.5376 93.1714L23.2636 92.8778L23.1363 92.7505L23.0091 92.6233L22.8819 92.545H22.784V92.594L22.7253 92.6723V92.7995V92.9952V93.2497V93.9249V110.181V111.071V111.805V112.118V112.392V112.666L22.6763 112.872V113.078L22.6078 113.244L22.5296 113.352L22.4513 113.489L22.3827 113.596L22.2653 113.684L22.1577 113.743H22.0206L21.6879 113.851L21.3747 113.919H21.0909H20.8756H20.7777L20.6994 113.968V114.046V114.125L20.4254 114.33H21.5509H22.3827H22.9993H23.381H23.4984H23.7137H24.3401H24.7609H25.3188H26.6693L26.8259 114.262V114.203V114.154V114.076L26.7574 114.027H26.6498H26.4051H26.0625L25.6515 113.958L25.2307 113.851H25.0839L24.9762 113.772L24.8588 113.704L24.7609 113.596L24.6533 113.498L24.5554 113.371L24.4869 113.215L24.4184 113.038L24.3499 112.823V112.588L24.2814 112.344V112.05V111.414L24.2324 110.601L23.7822 96.8903ZM57.7519 96.8903L58.1825 97.3894L58.8186 98.1137L59.6309 98.9749L60.5411 100.022L61.5883 101.167L62.7431 102.41L63.9175 103.721L65.1702 105.043L66.325 106.266L67.519 107.558L68.7228 108.83L69.858 109.995L70.8367 111.022L71.6588 111.844L72.246 112.432L72.5102 112.706L73.44 113.635L74.0467 114.193L74.2131 114.379L74.3795 114.477H74.5067H74.585H74.6535L74.7122 114.428V114.35V114.174V113.919V113.567V113.087V112.451V95.8138V95.2266V94.7177V94.4926V94.3262V94.1305V93.9837L74.7905 93.8467L74.8493 93.739L74.9373 93.6118L75.0548 93.5237L75.1526 93.4356L75.2897 93.3671L75.4267 93.3182H75.5833L75.8279 93.2399H76.0139H76.1705H76.3956H76.513V93.0931L76.4543 93.0442H76.2977H75.2407L74.5459 93.0931H74.0174H72.9311H72.569H72.1188H71.6881H70.4844H70.2984V93.142H70.2299V93.2888V93.3573H70.2887H70.6214H70.9737L71.375 93.4063L71.7762 93.4748H71.9328L72.0796 93.5433L72.2166 93.6314L72.3145 93.7096L72.4222 93.8075L72.5004 93.9249L72.5885 94.0424L72.6472 94.1892L72.706 94.3654V94.5219L72.7549 94.7568V94.9721V95.5202V96.1368L73.0779 110.543L72.6179 110.083L72.0209 109.417L71.2478 108.576L70.3669 107.597L69.3883 106.54L68.4096 105.395L67.3331 104.279L66.2761 103.124L64.6613 101.373L63.0954 99.6893L61.6274 98.1039L60.7858 96.7142L59.6309 95.481L58.7306 94.5024L58.0846 93.8075L57.7519 93.4258L57.5072 93.1714L57.2332 92.8778L57.0962 92.7505L56.9689 92.6233L56.8613 92.545H56.7732H56.7047V92.594V92.6723V92.7995L56.6558 92.9952V93.2497V93.5433V93.9249V110.181V111.071V111.805V112.118V112.392V112.666L56.5971 112.872V113.078L56.5286 113.244V113.352L56.4503 113.489L56.3426 113.596L56.2447 113.684L56.1371 113.743H56.0099L55.6869 113.851L55.3444 113.919H55.0508H54.8452H54.7376V113.968H54.6789V114.046V114.125L54.8355 114.193H55.9316L56.7634 114.125H57.38H57.7421H57.8693H58.0749H58.7306H59.1514L59.6309 114.174H60.5509L60.727 114.105H60.7956V114.046V113.919L60.727 113.87H60.6292H60.3649H60.0224L59.6114 113.802L59.2199 113.694H59.0829L58.9654 113.616L58.848 113.547L58.7306 113.44L58.6425 113.342L58.5446 113.215L58.4761 113.058L58.3978 112.882V112.666L58.3293 112.432V112.187V111.893V111.257V110.445L57.7519 96.8903ZM91.0854 106.139V108.957V109.76V110.523V111.179V111.795L91.0365 112.265V112.578L90.9777 112.843V113.107L90.8799 113.332V113.42V113.498L90.8114 113.586L90.7429 113.655L90.6646 113.704H90.5765L90.4884 113.763H90.3808L90.185 113.821L89.9795 113.87H89.7446H89.5489H89.4314L89.3629 113.929V113.997V114.046V114.095V114.154L89.5097 114.223H90.4884L90.9092 114.174H91.379H92.1228H92.387H92.8666H93.3461H93.9431L94.6869 114.223H95.6069H96.703H100.187H100.412H100.598L100.686 114.154L100.755 114.105H100.823L100.872 114.027L100.96 113.831L101.038 113.606L101.097 113.332L101.146 112.931V112.529L101.224 112.07V111.658V111.296V111.003V110.562V110.504V110.455H101.078V110.582L101.029 110.787L100.676 111.394L100.578 111.756V111.893L100.51 112.07L100.422 112.197L100.353 112.314L100.285 112.432L100.197 112.559L100.119 112.666L100.011 112.755L99.9032 112.833L99.776 112.892L99.639 112.97L99.5117 113.038L99.2279 113.146L98.905 113.205L98.5233 113.263H98.1514H97.437H96.2723H95.8222H95.4503L95.0881 113.215L94.7946 113.146L94.5205 113.078L94.3052 112.999L94.1389 112.872L94.0312 112.813L93.9627 112.715L93.8942 112.666L93.8257 112.559L93.718 112.392L93.6593 112.158L93.581 111.923L93.5321 111.639V111.326V110.983V110.631V110.102V108.674V107.94V103.624V103.565V103.467H93.5908H93.6887H93.9627H94.4129H94.9609H95.5873H96.2234L96.8498 103.526H97.3587H97.7404H97.9361H98.1025H98.2786L98.4254 103.594H98.5624L98.6603 103.653H98.7484L98.8365 103.751L98.9833 103.898L99.0909 104.044L99.1692 104.201V104.348L99.2181 104.622V104.857V105.522V105.61V105.718H99.2671H99.3258H99.3845V105.659V105.591V105.405V105.229V104.955L99.4334 104.455V103.907L99.502 103.408L99.5705 102.792L99.6488 102.322V102.009V101.705V101.656V101.588H99.5313H99.4628L99.3454 101.715L99.1986 101.852L99.1105 101.96L98.9735 102.019L98.8658 102.087H98.6994L98.3471 102.175H97.8871H94.4129H93.9137H93.6593H93.6104H93.5321V102.067V94.1109V93.9739V93.8956H94.8043H95.4698H96.106H97.4663L97.9752 93.9641L98.3863 94.0718H98.5527L98.7288 94.1403L98.856 94.199L98.9637 94.2479H99.0713L99.1594 94.3262L99.2279 94.4143L99.2769 94.4828L99.3943 94.6296L99.4628 94.8155L99.5509 95.07L99.6096 95.3636V95.6181V95.8138V95.9508L99.6586 96.0585V96.1172H99.7564V96.0585V95.9508V95.8627V95.4712L99.8053 94.9036V94.3458V94.0032L99.8738 93.4943L99.9424 93.1029L100.021 92.8386V92.6625V92.5744V92.4863H99.8347L99.6194 92.5744H99.4334H99.1398H98.8071L98.4352 92.6233H91.1833H90.7331H90.2535H89.7446H88.9323L88.7855 92.6723H88.7268V92.731V92.8484H88.7953H89.1085H89.3727H89.637L89.8523 92.8974H90.0089L90.1459 92.9463H90.3025L90.4199 93.0148H90.5276L90.645 93.1127L90.7135 93.1909L90.782 93.2986L90.8407 93.3867L90.8994 93.5139V93.6118V93.7488L90.9582 94.0522V94.3947V94.7177V95.7355V96.1661V106.158L91.0854 106.139ZM116.198 106.139V107.117V108.096V110.572V111.228V111.844L116.149 112.314V112.627V112.892L116.081 113.156L116.012 113.381L115.944 113.469L115.895 113.547L115.836 113.635L115.777 113.704L115.689 113.753H115.63L115.533 113.812H115.415L115.219 113.87L114.985 113.919H114.769H114.573H114.456L114.388 113.978V114.046V114.095V114.144V114.203H114.436L114.583 114.272H115.562L116.433 114.203H117.147H117.461H117.598H117.852H118.664H119.212L119.77 114.252H121.14L121.228 114.203H121.297H121.356V114.154V114.105V114.037L121.277 113.978H121.16H120.925H120.602L120.23 113.929L119.897 113.87H119.751L119.614 113.812H119.486L119.389 113.763L119.281 113.694L119.212 113.606L119.134 113.528L119.046 113.44V113.322V113.215V113.097V112.95L118.987 112.686V112.373L118.919 111.903V111.287V110.631V109.867V109.065V105.552V105.434V105.375H118.968H122.462H122.579H122.657H122.736L122.824 105.473L123.068 105.786L123.382 106.217L123.724 106.697L124.125 107.264L124.556 107.842L125.026 108.448L125.447 109.055L125.916 109.652L126.484 110.425L127.022 111.12L127.512 111.737L127.981 112.295L128.206 112.549L128.412 112.774L128.637 113.019L128.862 113.195L129.077 113.371L129.293 113.557L129.518 113.704L129.743 113.831L130.017 113.949L130.301 114.095L130.604 114.164L130.947 114.252L131.328 114.311H131.749L132.209 114.36H135.145L134.93 114.33H135.037H135.096L135.145 114.272V114.223V114.174L135.077 114.105L135.018 114.046H134.734H134.499H134.166L133.804 113.978H133.511L133.168 113.88L132.982 113.831L132.796 113.763L132.581 113.675L132.385 113.567L132.141 113.479L131.935 113.312L131.671 113.166L131.436 112.98L131.172 112.774L130.898 112.559L130.624 112.285L130.35 111.991L129.704 111.296L129.048 110.533L128.363 109.721L127.639 108.82L126.895 107.842L126.112 106.863L125.29 105.806L124.448 104.72L124.908 104.289L125.319 103.829L125.701 103.418L126.043 102.987L126.376 102.576L126.65 102.175L126.895 101.764L127.1 101.333L127.296 100.932L127.463 100.56L127.58 100.14L127.688 99.7383L127.776 99.3566L127.825 98.9553V98.5736V97.6928L127.766 97.3503L127.707 97.0176L127.619 96.7044L127.502 96.3716L127.414 96.0878L127.277 95.8431L127.12 95.5887L126.944 95.3342L126.797 95.1287L126.64 94.9232L126.474 94.747L126.308 94.5611L126.171 94.4143L125.995 94.3066L125.877 94.1794L125.574 93.9935L125.27 93.8467L124.987 93.6705L124.673 93.5433L124.35 93.4454L124.027 93.328L123.695 93.2203H123.362L123.029 93.1714L122.706 93.1224H122.373H122.021L121.346 93.0735H119.829H119.31H118.801H118.312H116.59H116.149H115.679H115.122H113.928L113.761 93.1224V93.1812H113.849H114.143H114.417H114.681L114.887 93.2301H115.053L115.2 93.279H115.347L115.474 93.3475H115.572L115.679 93.4454L115.748 93.5237L115.816 93.6314L115.914 93.7194V93.8467V93.9445V94.0815L115.983 94.3849V94.7275V95.0504V97.2035V98.1822V105.904L116.198 106.139ZM118.449 94.3262V94.1892V94.1109L118.527 94.0326L118.625 93.9739L118.948 93.9152L119.369 93.8564H119.907H120.534H120.798H121.072H121.336L121.61 93.9152H121.845L122.099 94.0032L122.344 94.0815L122.559 94.1598L122.794 94.2675L123.01 94.3947L123.225 94.4828L123.411 94.6492L123.587 94.7862L123.783 94.933L123.949 95.0896L124.106 95.2951L124.282 95.481L124.409 95.6572L124.556 95.8823L124.683 96.0976L124.791 96.3325L124.908 96.5772L124.996 96.812L125.075 97.0665L125.182 97.3112L125.231 97.595L125.3 97.8886V98.1822V98.4758L125.358 98.7889V99.8557V100.228V100.59L125.309 100.952L125.231 101.285L125.133 101.608L125.055 101.911L124.928 102.185L124.801 102.449L124.683 102.713L124.527 102.929L124.39 103.154L124.233 103.359L124.164 103.565L123.988 103.731L123.802 103.829L123.558 104.015L123.293 104.132L123.029 104.211L122.736 104.309L122.462 104.358H121.923H121.669H121.199H120.729L120.299 104.299L119.888 104.25L119.486 104.191L119.154 104.123L118.889 104.035L118.694 103.937L118.596 103.858L118.547 103.78V103.702V103.594L118.449 94.3262ZM154.748 114.741H155.433H156.157L156.852 114.683L157.557 114.624L158.212 114.526L158.829 114.409L159.123 114.34L159.367 114.272L159.622 114.193L159.847 114.095L160.023 114.027L160.15 113.949L160.258 113.9L160.346 113.802L160.434 113.723L160.483 113.616V113.469L160.542 113.303L160.649 112.872L160.767 112.344L160.874 111.776L160.972 111.179L161.031 110.65L161.119 110.171V109.838V109.437V109.31V109.251H161.07H160.972H160.904V109.3L160.855 109.437V109.623L160.806 109.867L160.728 110.112L160.63 110.425L160.542 110.787L160.385 111.12L160.219 111.443L160.131 111.629L160.013 111.766L159.905 111.893L159.817 112.021L159.583 112.226L159.338 112.422L159.113 112.578L158.868 112.706L158.594 112.862L158.291 112.989L158.017 113.068L157.703 113.156L157.4 113.234L157.077 113.303H156.735H156.372H155.658H154.875H154.327H153.74L153.221 113.234L152.673 113.136L152.184 113.019L151.665 112.872L151.195 112.706L150.706 112.5L150.266 112.285L149.815 112.03L149.375 111.766L148.954 111.492L148.572 111.218L148.181 110.856L147.838 110.543L147.476 110.2L147.144 109.838L146.84 109.447L146.537 109.045L146.263 108.634L145.999 108.204L145.793 107.773L145.568 107.333L145.392 106.902L145.196 106.403L145.039 105.953L144.932 105.463L144.814 104.984L144.726 104.475V103.986V103.496V102.987V102.449V101.911V101.392V100.883L144.814 100.394L144.883 99.8948L145 99.4055L145.137 98.9455L145.294 98.466L145.46 98.0354L145.676 97.5852L145.92 97.1741L146.185 96.7533L146.488 96.3325L146.821 95.9508L147.193 95.5593L147.398 95.3832L147.584 95.207L147.838 95.0211L148.093 94.8547L148.387 94.6687L148.7 94.5122L149.013 94.3458L149.414 94.1794L149.815 94.0326L150.266 93.8956L150.706 93.7782L151.234 93.6999L151.802 93.6216L152.399 93.5433H153.025H154.17H154.63H155.071H155.511L155.922 93.6314L156.324 93.6901L156.735 93.7782L157.106 93.9054L157.459 94.0228L157.811 94.1305L158.115 94.2968L158.428 94.4241L158.702 94.5709L158.956 94.7079L159.181 94.8841L159.387 95.0504L159.524 95.1581L159.631 95.2951L159.749 95.4321L159.876 95.5887L159.974 95.7649L160.082 95.9312L160.17 96.0976L160.258 96.2933L160.326 96.4891L160.385 96.6946V96.9001L160.454 97.1056V97.3014V97.4971V97.9277V98.1822V98.3583V98.4366H160.502H160.63H160.688V98.3779V98.3192V98.1332V97.869V97.6635V97.3797V96.6065V96.1857V95.3147V94.9428V94.2871V93.8564L160.737 93.5531V93.3573V93.2888V93.2399V93.1909H160.679H160.581H160.483H160.131H159.798H159.446L159.103 93.1322H158.751L158.379 93.0442L157.978 92.9561L157.586 92.8974L157.058 92.8288L156.529 92.7603L155.991 92.6918L155.433 92.6429L154.924 92.594H154.386H153.916H153.476H152.673H151.92L151.205 92.6723L150.53 92.7897L149.884 92.9071L149.258 93.0637L148.69 93.2105L148.161 93.4356L147.633 93.6216L147.153 93.876L146.713 94.1207L146.273 94.3947L145.881 94.6492L145.499 94.933L145.157 95.2657L144.824 95.5789L144.589 95.8138L144.364 96.0682L144.168 96.3031L143.963 96.538L143.777 96.812L143.591 97.0567L143.425 97.3112L143.278 97.5852L142.984 98.1137L142.72 98.6324L142.495 99.1608L142.289 99.6795L142.123 100.198L142.006 100.688L141.888 101.206L141.8 101.676L141.722 102.116V102.547V102.939V103.301V103.819V104.367V104.876L141.79 105.424L141.878 105.953L142.015 106.501L142.152 107.059L142.329 107.597L142.544 108.145L142.769 108.683L142.916 108.957L143.053 109.202L143.229 109.486L143.376 109.75L143.552 109.995L143.738 110.249L143.934 110.523L144.129 110.768L144.354 110.973L144.58 111.257L144.814 111.463L145.069 111.707L145.49 112.079L145.94 112.422L146.4 112.745L146.86 113.058L147.369 113.312L147.897 113.567L148.445 113.782L148.974 114.007L149.59 114.174L150.197 114.33L150.823 114.487L151.489 114.585L152.194 114.673L152.898 114.731H153.652L154.748 114.741ZM177.893 101.138V95.7355V95.3538V95.0309V94.6883L177.952 94.3751V94.2283V94.1011L178.021 93.9935V93.876L178.079 93.7977L178.148 93.7194L178.246 93.6411L178.334 93.5531H178.422H178.549L178.667 93.4846H178.97L179.185 93.4356H179.371H179.518H179.743H179.831V93.3769L179.675 93.328H178.696H178.246H177.796H177.394H175.956H175.554H175.075H174.644H173.666L173.519 93.3769H173.45V93.4356V93.5531H173.499H173.558H173.822H174.028H174.282L174.517 93.602H174.634H174.732L174.83 93.6705L174.928 93.7194H175.016L175.085 93.7977L175.163 93.8956L175.222 94.0032L175.271 94.0913L175.329 94.199V94.3164V94.4534L175.378 94.7568V95.0994V95.4223V96.2346V96.8414V108.135V109.045V110.611V111.267V111.884L175.329 112.353V112.666L175.271 112.931L175.212 113.195L175.134 113.42L175.075 113.508V113.586L175.006 113.675L174.948 113.743L174.869 113.792H174.781L174.703 113.851H174.576L174.37 113.909L174.145 113.958H173.94H173.744H173.626L173.538 114.017V114.242H173.597L173.724 114.311H174.703L175.163 114.262H175.603H176.328H176.582H176.846H177.091H177.913H178.442L179.019 114.311H180.399L180.477 114.262H180.536V114.164V114.095L180.467 114.037H180.36H180.105H179.782L179.401 113.988L179.058 113.929H178.97L178.843 113.87H178.725L178.598 113.821L178.51 113.753L178.422 113.665L178.344 113.586L178.295 113.498L178.236 113.381L178.177 113.273V113.156L178.119 113.009L178.07 112.745V112.432V111.962L178.021 111.345V110.69V101.304L177.893 101.138ZM195.03 106.139V108.957V109.76V110.523V111.179V111.795L194.981 112.265V112.578L194.922 112.843L194.844 113.107L194.629 113.352L194.56 113.44V113.518L194.482 113.606L194.433 113.675L194.345 113.723H194.276L194.169 113.782H194.071L193.865 113.841L193.66 113.89H193.425H193.219H193.102V113.949L193.053 114.017V114.115V114.174L193.19 114.242H194.169L195.05 114.174H195.784H196.087H196.185H196.449H197.291H197.8L198.387 114.223H199.757L199.845 114.174H199.904H199.953V114.125V114.076V114.007L199.904 113.949H199.796H199.532H199.199L198.837 113.9L198.504 113.841H198.367L198.22 113.782H198.103L197.986 113.733L197.897 113.665L197.8 113.577L197.741 113.498L197.672 113.41L197.614 113.293L197.565 113.185V113.068V112.921V112.657V112.344V111.874V111.257V110.601V109.838V105.326L197.614 105.268H201.117H201.225H201.313H201.401L201.489 105.366L201.724 105.679L202.037 106.109L202.409 106.589L202.791 107.157L203.231 107.734L203.672 108.341L204.132 108.948L204.562 109.545L205.159 110.318L205.697 111.013L206.177 111.629L206.627 112.187L206.852 112.441L207.097 112.666L207.312 112.911L207.508 113.087L207.723 113.263L207.958 113.449L208.173 113.596L208.408 113.723L208.682 113.841L208.976 113.988L209.279 114.056L209.612 114.144L209.964 114.203H210.395L210.865 114.252H213.801L213.909 114.203H214.006H214.075V114.144V114.046L214.016 113.978L213.948 113.919H213.654H213.429H213.116L212.724 113.851H212.45L212.088 113.753L211.902 113.704L211.746 113.635L211.54 113.547L211.305 113.44L211.09 113.352L210.845 113.185L210.62 113.038L210.356 112.852L210.092 112.647L209.827 112.432L209.544 112.158L209.27 111.864L208.643 111.169L207.988 110.406L207.283 109.593L206.559 108.693L205.834 107.714L205.042 106.736L204.22 105.679L203.368 104.592L203.848 104.162L204.259 103.702L204.64 103.291L204.983 102.86L205.306 102.449L205.59 102.048L205.834 101.637L206.04 101.206L206.246 100.805L206.383 100.433L206.5 100.012L206.617 99.611L206.696 99.2294L206.745 98.8281V98.4464V98.0354V97.6831V97.3405L206.676 97.0078L206.588 96.6946L206.49 96.3618L206.363 96.078L206.246 95.8334L206.089 95.5789L205.952 95.3245L205.786 95.1189L205.629 94.9134L205.453 94.7372L205.277 94.5513L205.13 94.4045L204.983 94.2968L204.836 94.1696L204.572 93.9837L204.278 93.8369L203.955 93.6607L203.652 93.5335L203.349 93.4356L203.006 93.3182L202.673 93.2105H202.37L202.027 93.1616L201.685 93.1127H201.352H201L200.354 93.0637H198.817H198.309H197.76H197.271H195.549H195.138H194.638H194.13H192.906L192.769 93.1127H192.72V93.1714V93.2497H192.789H193.112H193.366H193.64L193.826 93.2986H194.012L194.169 93.3475H194.296L194.423 93.4161H194.531L194.629 93.5139L194.707 93.5922L194.795 93.6999L194.854 93.7879L194.903 93.9152V94.013V94.1501L194.952 94.4534V94.796V95.1189V95.9312V96.538V105.923L195.03 106.139ZM197.291 94.3262V94.1892L197.349 94.1109L197.428 94.0326L197.506 93.9739L197.8 93.9152L198.24 93.8564H198.798H199.405H199.669H199.953H200.246L200.481 93.9152H200.745L200.98 94.0032L201.225 94.0815L201.43 94.1598L201.685 94.2675L201.89 94.3947L202.096 94.4828L202.301 94.6492L202.468 94.7862L202.664 94.933L202.84 95.0896L203.016 95.2951L203.143 95.481L203.309 95.6572L203.437 95.8823L203.554 96.0976L203.691 96.3325L203.779 96.5772L203.887 96.812L203.985 97.0665L204.053 97.3112L204.132 97.595L204.181 97.8886V98.1822V98.4758V98.7889V99.8557V100.228V100.59V100.952L204.112 101.285L204.053 101.608L203.926 101.911L203.818 102.185L203.711 102.449L203.554 102.713L203.437 102.929L203.261 103.154L203.114 103.359L202.947 103.526L202.771 103.692L202.566 103.79L202.331 103.976L202.067 104.093L201.793 104.172L201.538 104.269L201.254 104.318H200.706H200.452H199.992H199.522L199.062 104.26L198.641 104.211L198.269 104.152L197.937 104.084L197.682 103.995L197.457 103.898L197.379 103.819L197.33 103.741L197.281 103.663V94.2871L197.291 94.3262ZM233.501 114.741H234.196H234.901L235.606 114.683L236.31 114.624L236.956 114.526L237.553 114.409L237.866 114.34L238.131 114.272L238.365 114.193L238.591 114.095L238.767 114.027L238.894 113.949L239.002 113.9L239.099 113.802V113.723L239.178 113.616L239.246 113.469L239.295 113.303L239.393 112.872L239.51 112.344L239.628 111.776L239.726 111.179L239.794 110.65L239.882 110.171V109.838V109.437V109.31V109.251H239.765L239.716 109.3V109.437L239.648 109.623V109.867L239.559 110.112L239.471 110.425L239.354 110.787L239.217 111.12L239.051 111.443L238.943 111.629L238.855 111.766L238.747 111.893L238.649 112.021L238.424 112.226L238.189 112.422L237.954 112.578L237.68 112.706L237.426 112.862L237.142 112.989L236.839 113.068L236.535 113.156L236.232 113.234L235.733 113.352H235.4H235.058H234.324H233.55H232.983H232.415H231.818L231.299 113.254L230.771 113.136L230.282 112.989L229.783 112.823L229.313 112.618L228.882 112.373L228.452 112.118L228.021 111.854L227.59 111.58L227.209 111.306L226.827 110.944L226.465 110.631L226.113 110.288L225.809 109.926L225.486 109.535L225.193 109.133L224.928 108.722L224.674 108.292L224.439 107.861L224.214 107.421L224.038 106.99L223.862 106.491L223.705 106.041L223.588 105.552L223.47 105.072L223.392 104.563L223.314 104.074V103.584V101.999V101.48L223.362 100.971L223.421 100.482L223.519 99.9829L223.636 99.4936L223.764 99.0336L223.891 98.5541L224.087 98.1235L224.282 97.6733L224.527 97.2622L224.811 96.8414L225.104 96.4206L225.437 96.0389L225.799 95.6474L226.005 95.4712L226.21 95.2951L226.455 95.1091L226.709 94.9428L227.013 94.7568L227.316 94.6002L227.659 94.4339L228.011 94.2675L228.422 94.1207L228.853 93.9837L229.342 93.8662L229.861 93.7782L230.428 93.6999L231.035 93.6216H231.652H232.797H233.247H233.687H234.098L234.529 93.7096L234.94 93.7684L235.341 93.8564L235.733 93.9837L236.075 94.1011L236.437 94.2088L236.721 94.3751L237.025 94.5024L237.308 94.6492L237.543 94.7862L237.768 94.9624L237.994 95.1287L238.121 95.2364L238.268 95.3734L238.356 95.5104L238.473 95.667L238.581 95.8431L238.679 96.0095L238.767 96.1759L238.865 96.3716L238.933 96.5674L238.992 96.7729L239.06 96.9784L239.109 97.1839V97.3797V97.5754V97.8005V98.2605V98.4366V98.5149H239.158H239.295H239.344V98.4562V98.3975L239.413 98.2115V97.9473V97.7418V96.264V95.8138V95.393V95.0211V94.3654L239.481 93.9347V93.6314V93.4356V93.3671V93.3182L239.422 93.2692H239.373H239.285H239.188H238.845H238.483H238.131L237.778 93.2105H237.426L237.083 93.1224L236.682 93.0344L236.271 92.9756L235.743 92.9071L235.224 92.8386L234.676 92.7701L234.118 92.7212L233.599 92.6723H233.1H232.64H232.17H231.378H230.634L229.91 92.7505L229.225 92.868L228.589 92.9854L227.952 93.142L227.385 93.2888L226.847 93.5139L226.338 93.6999L225.858 93.9543L225.398 94.199L224.997 94.473L224.566 94.7275L224.204 95.0113L223.862 95.344L223.529 95.6572L223.294 95.8921L223.069 96.1465L222.863 96.3814L222.658 96.6163L222.462 96.8903L222.296 97.135L222.11 97.3894L221.963 97.6635L221.679 98.192L221.434 98.7106L221.18 99.2391L220.994 99.7578L220.837 100.277L220.691 100.766L220.554 101.285L220.485 101.754L220.426 102.195V102.625V103.017V103.898V104.446V104.955L220.485 105.503L220.593 106.031L220.71 106.579L220.847 107.137L221.033 107.675L221.239 108.223L221.503 108.762L221.63 109.036L221.757 109.28L221.914 109.564L222.071 109.828L222.266 110.073L222.452 110.327L222.619 110.601L222.854 110.846L223.049 111.052L223.294 111.335L223.529 111.541L223.793 111.786L224.204 112.158L224.654 112.5L225.104 112.823L225.594 113.136L226.083 113.391L226.582 113.645L227.15 113.86L227.708 114.086L228.295 114.252L228.892 114.409L229.538 114.565L230.203 114.663L230.879 114.751L231.603 114.81H232.356L233.501 114.741ZM257.264 101.138V96.7142V96.1074V95.2951V94.9721L257.313 94.6296V94.3164V94.1696L257.371 94.0424V93.9347L257.42 93.8173L257.498 93.739L257.567 93.6607L257.655 93.5824L257.743 93.4943H257.861H257.978L258.135 93.4258H258.262L258.526 93.3769H258.771H259.025H259.309V93.2007H259.25L259.123 93.1518H258.086H257.616H257.117H256.657H255.306H254.846H254.357H253.848H252.634L252.497 93.2007H252.439V93.2595V93.3378H252.527H252.82H253.075H253.349L253.564 93.3867H253.721L253.877 93.4356H254.014L254.122 93.5041H254.239L254.328 93.602L254.435 93.6803L254.504 93.7879L254.553 93.876V94.0032L254.621 94.1011L254.67 94.2381V94.5415V94.8841V95.207V95.5887V109.633V110.396V111.052V111.668L254.611 112.138V112.451L254.562 112.715L254.494 112.98L254.416 113.205V113.293L254.357 113.371L254.308 113.459L254.239 113.528L254.151 113.577H254.063L253.965 113.635H253.887L253.672 113.694L253.466 113.743H253.241H253.026H252.938L252.85 113.802V113.87V113.968V114.027H252.908L253.055 114.095H254.034L254.465 114.046H254.895H255.668H255.893H256.676H257.342H258.115L258.927 114.095H259.906H260.992H264.564H264.701H264.838H264.976L265.093 114.33L265.161 114.281H265.24L265.298 114.223V114.154L265.367 113.958L265.445 113.743L265.524 113.4L265.612 113.009L265.69 112.559L265.749 112.138V111.717V111.384V111.101V110.915V110.709V110.572H265.641L265.592 110.69V110.836V111.061L265.514 111.267L265.445 111.512L265.377 111.737L265.269 111.952L265.171 112.177L265.024 112.392L264.887 112.549L264.741 112.706L264.613 112.833L264.447 112.931L264.251 113.038L264.085 113.107L263.909 113.195L263.684 113.244H263.488L263.028 113.312H262.539H262.03H261.442H260.679H260.053L259.524 113.244L259.094 113.166H258.898H258.741L258.585 113.117L258.458 113.048L258.35 112.999L258.232 112.921L258.144 112.843L258.056 112.764L257.958 112.647L257.861 112.52L257.802 112.334L257.743 112.118L257.694 111.893L257.635 111.58V111.247L257.567 110.885L257.518 110.024V108.977V107.724V101.236L257.264 101.138ZM4.5318 100.022V92.1927V91.6642V91.1651V90.6758L4.58074 90.2256V90.0494V89.8537L4.62967 89.7069V89.5405L4.68839 89.4035L4.76668 89.2861L4.84498 89.1784L4.91349 89.0805L5.01135 89.0022L5.10922 88.9337L5.21687 88.875H5.33432L5.53984 88.8163H5.70621H5.82365H5.96066H6.02917H6.11725V88.5227H6.02917H5.96066H5.84322H5.16794L4.40458 88.5716H3.73908H3.40633H3.07359H2.40809L1.60558 88.5227H0.900937H0.852004H0.773709H0.705202H0.646484V88.8163H0.705202H0.773709H0.940085H1.13582L1.34134 88.875L1.55665 88.9533L1.65451 89.012L1.74259 89.0708L1.84046 89.1197L1.89918 89.2078L1.97748 89.2958L2.04598 89.4133L2.1047 89.5112L2.16342 89.6579L2.2515 89.9711L2.32001 90.3235L2.38852 90.7541V91.2434V91.7425V92.271V92.9365V93.7684V111.384V112.578V113.655V114.634V115.475L2.33958 116.199V116.63V117.022L2.2515 117.384V117.716L2.19278 117.844V117.981L2.13406 118.079L2.07534 118.186L1.99705 118.264L1.92854 118.353L1.86003 118.411H1.77195L1.58601 118.46L1.38049 118.519H1.19454H0.852004V118.597V118.842V118.901H0.910726H0.989017H1.85025L2.61361 118.852H3.27911H3.78801H4.11098H4.51223H4.98199H5.48111H6.72403L6.79253 118.803H6.85125V118.734V118.666V118.46V118.382H6.78275H6.56744H6.27384L5.96066 118.323L5.67685 118.274H5.53984L5.41261 118.216L5.30495 118.127L5.21687 118.049L5.11901 117.942L5.0505 117.844L4.99178 117.707V117.579L4.76668 117.266L4.70796 116.904V116.513V116.082V115.358L4.64925 114.516V113.538V112.461V100.022H4.5318ZM280.517 107.264V110.044V111.296V112.461V113.538V114.516V115.348V116.043L280.458 116.474V116.885L280.399 117.217L280.331 117.521L280.282 117.677V117.805L280.223 117.922L280.135 118.02L280.086 118.108L280.018 118.176L279.773 118.245H279.695L279.509 118.304H279.293L279.127 118.362H278.892L278.833 118.441V118.617V118.695V118.754H278.902H278.98H279.049H279.46H279.832H280.223H280.615H281.27H281.505H281.603H281.906H282.337L282.856 118.803L283.541 118.861H284.353H285.332L286.467 118.91H288.424H288.522H288.65H288.581L288.65 118.842L288.718 118.773H288.777L288.835 118.685V118.568L288.924 118.323L288.992 117.971L289.051 117.55L289.1 117.041V116.425L289.168 115.808V115.201V114.673V114.272V113.831V113.645V113.547V113.498H289.061L289.012 113.557V113.753V114.037L288.924 114.614L288.835 115.113L288.718 115.583L288.62 115.945L288.542 116.111L288.464 116.258L288.376 116.395L288.307 116.532L288.19 116.64L288.101 116.767L287.984 116.845L287.857 116.943L287.73 117.012L287.602 117.09H287.446L287.309 117.168L286.996 117.227L286.663 117.286H286.34H286.027H285.048H284.657H284.304L284.02 117.227L283.737 117.139L283.492 117.041L283.404 116.973L283.306 116.904L283.218 116.836L283.13 116.738L283.052 116.65L282.983 116.532V116.425L282.915 116.317L282.817 116.033L282.758 115.73L282.689 115.377V114.976V114.536V114.027V103.721V103.594V103.516H282.973H283.394H283.913H284.441H284.999H285.528H285.988H286.32H286.487L286.643 103.594H286.79H286.927L287.035 103.692L287.133 103.78L287.211 103.878L287.289 103.966L287.426 104.172L287.495 104.397L287.563 104.612L287.622 104.837L287.681 105.189V105.532V106.501V106.609V106.667H287.847V106.599V106.511V106.413V106.168V105.503V104.818V104.035V103.32L287.906 102.459L287.984 101.793V101.324L288.033 101.069V100.913V100.805H287.964L287.916 100.854V100.922L287.818 101.099L287.69 101.304L287.602 101.431L287.514 101.529L287.397 101.637L287.26 101.715H287.103H286.937H286.722H286.516L286.193 101.764H285.714H285.107H284.666H284.02H282.709H282.66V101.686L282.601 101.559V90.4507V90.2647V90.1375V90.0886H283.208H283.727H284.862H285.391L285.811 90.1375H286.066L286.291 90.1962L286.487 90.2549L286.702 90.3137L286.859 90.3919H287.045L287.172 90.4702L287.27 90.5388L287.377 90.6366L287.475 90.7247L287.553 90.8226V90.9302L287.622 91.0183L287.71 91.2336L287.798 91.4783L287.857 91.86L287.925 92.271V92.6429V93.142V93.3084V93.3573H287.974V93.3084V93.1518L288.023 93.0148V92.4374V91.6349V90.8617V90.3528L288.092 89.6188L288.15 89.0805L288.209 88.6989V88.4444V88.3074V88.1899L288.023 88.2487L287.857 88.3955L287.671 88.4542H287.416H287.123H286.78L286.379 88.5031H280.399L280.027 88.4248H279.597H279.127H278.687H278.139H278.07H277.992H277.933L277.874 88.4738V88.5227V88.8848V88.9533H277.933H278.002H278.197H278.442H278.677H278.863L279.01 89.0218L279.137 89.0903L279.245 89.1588L279.362 89.2371L279.46 89.3448L279.528 89.4427L279.616 89.5797L279.685 89.7069L279.734 89.8537V90.0005V90.1864L279.793 90.3724V90.7932V91.263V91.7621V92.271V92.9169V93.7586V107.078L280.517 107.264Z" fill="#8C734B"/>
<path d="M1.2527 140.901C1.2527 138.65 1.2527 138.229 1.2527 137.769C1.2527 137.309 1.12547 137.026 0.636133 136.967C0.463378 136.957 0.290195 136.957 0.117439 136.967C0.117439 136.967 0 136.879 0 136.83C0 136.781 0.0782936 136.712 0.244668 136.712H2.01606H3.89511C4.87243 136.643 5.8488 136.86 6.70389 137.339C7.01265 137.566 7.26623 137.86 7.44581 138.199C7.6254 138.538 7.72639 138.913 7.74128 139.296C7.71087 139.953 7.52789 140.594 7.20684 141.168C6.8858 141.743 6.4355 142.234 5.89159 142.604C7.12472 144.15 8.18168 145.462 9.04291 146.362C9.46636 146.877 10.0598 147.224 10.7164 147.341C10.89 147.379 11.0672 147.399 11.2449 147.4C11.2797 147.397 11.3143 147.407 11.3416 147.429C11.3689 147.451 11.3868 147.482 11.3917 147.517C11.3917 147.595 11.3036 147.625 11.0296 147.625H10.0509C9.4971 147.673 8.94021 147.575 8.43614 147.341C7.62222 146.765 6.92759 146.037 6.39071 145.198C5.75458 144.424 5.09887 143.475 4.75634 143.084C4.735 143.052 4.70542 143.028 4.67088 143.012C4.63634 142.996 4.59818 142.991 4.5606 142.996H2.66198C2.58369 142.996 2.54454 142.996 2.54454 143.123V143.465C2.54454 144.875 2.54454 146 2.62284 146.587C2.70113 147.174 2.75006 147.292 3.20025 147.37C3.41556 147.37 3.73852 147.439 3.86575 147.439C3.99297 147.439 4.00276 147.507 4.00276 147.556C4.00276 147.605 3.92447 147.664 3.75809 147.664C2.93601 147.664 1.97691 147.615 1.89862 147.615C1.82033 147.615 0.919948 147.664 0.41104 147.664C0.264239 147.664 0.176161 147.664 0.176161 147.556C0.176104 147.54 0.179434 147.524 0.185939 147.509C0.192443 147.494 0.201978 147.48 0.213942 147.469C0.225906 147.458 0.240036 147.45 0.255434 147.445C0.270833 147.439 0.28716 147.437 0.303385 147.439C0.455365 147.431 0.606189 147.408 0.753576 147.37C1.05696 147.292 1.08632 147.028 1.15483 146.587C1.22334 146.147 1.23312 144.855 1.23312 143.436L1.2527 140.901ZM2.56411 142.134C2.56586 142.172 2.57772 142.208 2.59841 142.239C2.61909 142.27 2.64784 142.295 2.68155 142.31C3.21743 142.473 3.77574 142.549 4.33551 142.536C4.72078 142.574 5.10817 142.488 5.4414 142.291C5.76171 142.02 6.01175 141.675 6.17023 141.287C6.3287 140.898 6.39092 140.477 6.35157 140.06C6.35157 138.249 5.3729 137.202 3.75809 137.202C3.398 137.206 3.0385 137.232 2.68155 137.28C2.64638 137.297 2.61666 137.323 2.59587 137.356C2.57508 137.389 2.56407 137.427 2.56411 137.466V142.134Z" fill="#8C734B"/>
<path d="M17.5574 140.901C17.5574 138.65 17.5574 138.229 17.5574 137.769C17.5574 137.309 17.4302 137.025 16.9408 136.967C16.7746 136.957 16.6079 136.957 16.4417 136.967C16.4074 136.961 16.3758 136.945 16.3512 136.92C16.3266 136.896 16.3104 136.864 16.3047 136.83C16.3047 136.732 16.3732 136.712 16.5591 136.712H18.3012C18.399 136.712 21.5504 136.712 21.8929 136.712C22.1258 136.699 22.3578 136.673 22.5877 136.634C22.6455 136.603 22.7086 136.583 22.7737 136.575C22.7737 136.575 22.852 136.634 22.852 136.702C22.852 136.771 22.7639 136.996 22.7346 137.378C22.7346 137.525 22.6758 138.19 22.6269 138.356C22.6282 138.374 22.626 138.392 22.6203 138.41C22.6146 138.427 22.6056 138.443 22.5938 138.456C22.582 138.47 22.5676 138.481 22.5514 138.489C22.5353 138.497 22.5177 138.502 22.4997 138.503C22.4116 138.503 22.3627 138.425 22.3627 138.317C22.3682 138.139 22.3485 137.961 22.3039 137.789C22.1963 137.573 22.0299 137.466 21.2176 137.358C20.9534 137.358 19.2603 137.309 19.0547 137.309C18.8492 137.309 18.9667 137.358 18.9667 137.466V141.38C18.9667 141.488 18.9667 141.537 19.0547 141.537C19.1428 141.537 21.2176 141.537 21.5699 141.488C21.9223 141.439 22.1376 141.488 22.3039 141.292C22.4703 141.097 22.4605 141.126 22.5192 141.126C22.578 141.126 22.6073 141.126 22.6073 141.224C22.5538 141.492 22.5146 141.764 22.4899 142.036C22.4461 142.344 22.42 142.655 22.4116 142.966C22.4116 143.083 22.3627 143.23 22.2844 143.23C22.2061 143.23 22.1865 143.23 22.1865 143.113C22.1953 142.949 22.1686 142.785 22.1082 142.633C22.0495 142.428 21.9223 142.261 21.3351 142.173C20.924 142.173 19.3777 142.114 19.0645 142.114C18.9667 142.114 18.9667 142.163 18.9667 142.212V143.426C18.9667 143.935 18.9667 145.628 18.9667 145.902C18.9667 146.881 19.2798 147.076 20.7576 147.076C21.2651 147.102 21.7734 147.049 22.2648 146.92C22.4625 146.843 22.6327 146.709 22.7531 146.534C22.8735 146.36 22.9387 146.153 22.9401 145.941C22.9401 145.784 23.0184 145.736 23.1064 145.736C23.1945 145.736 23.2043 145.843 23.2043 145.941C23.1612 146.414 23.0926 146.885 22.9988 147.35C22.8911 147.732 22.7346 147.732 22.1571 147.732C21.0317 147.732 20.1998 147.732 19.5441 147.683C18.8884 147.634 18.5654 147.683 18.3012 147.683C18.3012 147.683 17.9684 147.683 17.6455 147.683C17.3225 147.683 17.0191 147.683 16.7744 147.683C16.5298 147.683 16.5298 147.683 16.5298 147.575C16.5297 147.559 16.5331 147.543 16.5396 147.528C16.5461 147.513 16.5556 147.5 16.5676 147.489C16.5795 147.478 16.5937 147.469 16.6091 147.464C16.6245 147.459 16.6408 147.457 16.657 147.458C16.794 147.458 16.98 147.399 17.1072 147.39C17.4106 147.341 17.4302 147.047 17.5085 146.607C17.5957 145.559 17.6251 144.507 17.5965 143.455L17.5574 140.901Z" fill="#8C734B"/>
<path d="M41.5939 145.54H41.6722C42.0246 144.346 43.3947 140.128 43.9232 138.249C44.0264 137.967 44.0826 137.669 44.0896 137.368C44.0896 137.114 43.9623 136.947 43.2871 136.947C43.2472 136.941 43.2109 136.921 43.1842 136.89C43.1574 136.86 43.1419 136.821 43.1403 136.781C43.1403 136.713 43.2185 136.693 43.4241 136.693H44.941H46.1546C46.3111 136.693 46.3699 136.693 46.3699 136.781C46.3699 136.869 46.3699 136.947 46.2329 136.947C46.0605 136.928 45.8865 136.928 45.7142 136.947C45.264 137.114 45.0291 137.701 44.7355 138.494C44.07 140.324 42.5726 144.953 41.9756 146.578C41.5842 147.664 41.4863 147.83 41.3297 147.83C41.1731 147.83 41.0459 147.635 40.8306 147.077L37.8946 139.12C37.3759 140.402 35.3403 145.716 34.7922 147.057C34.528 147.674 34.4301 147.83 34.2735 147.83C34.1169 147.83 33.9995 147.674 33.6863 146.675L31.0047 138.063C30.7699 137.29 30.6133 137.084 30.2218 136.957C30.0029 136.912 29.7797 136.893 29.5563 136.898C29.5349 136.899 29.5137 136.894 29.494 136.886C29.4744 136.877 29.4567 136.865 29.442 136.849C29.4273 136.834 29.416 136.815 29.4087 136.795C29.4014 136.775 29.3984 136.753 29.3997 136.732C29.3997 136.664 29.5172 136.644 29.664 136.644H31.4256H33.0012C33.2067 136.644 33.285 136.644 33.285 136.732C33.2817 136.766 33.2702 136.799 33.2515 136.828C33.2328 136.857 33.2073 136.881 33.1774 136.898C32.9766 136.888 32.7754 136.908 32.5804 136.957C32.5187 136.983 32.466 137.026 32.4294 137.082C32.3927 137.138 32.3737 137.204 32.3749 137.27C32.4335 137.728 32.5317 138.18 32.6685 138.621C32.9132 139.6 34.4497 144.894 34.6258 145.472L37.7576 137.329C37.9827 136.752 38.0903 136.673 38.1686 136.673C38.2469 136.673 38.4035 136.879 38.5797 137.358L41.5939 145.54Z" fill="#8C734B"/>
<path d="M55.0409 136.996C55.2171 136.497 55.2954 136.409 55.3932 136.409C55.4911 136.409 55.5987 136.615 55.7455 136.947C56.0294 137.574 58.4467 143.573 59.3666 145.755C59.9147 147.057 60.3453 147.223 60.6389 147.341C60.8358 147.401 61.0399 147.434 61.2457 147.439C61.3142 147.439 61.4316 147.439 61.4316 147.556C61.4316 147.674 61.2652 147.664 61.0989 147.664C60.9325 147.664 59.7581 147.664 58.7109 147.664C58.4271 147.664 58.1727 147.664 58.1727 147.566C58.1727 147.468 58.2216 147.498 58.2803 147.468C58.3181 147.454 58.3523 147.431 58.3806 147.402C58.409 147.373 58.4309 147.339 58.4448 147.301C58.4587 147.263 58.4643 147.222 58.4612 147.182C58.4582 147.142 58.4466 147.102 58.4271 147.067L57.0765 143.69C57.0765 143.612 57.0178 143.593 56.9395 143.593H53.4555C53.3967 143.593 53.3478 143.593 53.3087 143.72L52.4474 146.039C52.318 146.351 52.2419 146.681 52.2223 147.018C52.2223 147.302 52.4866 147.419 52.741 147.419H52.8878C52.9955 147.419 53.0346 147.419 53.0346 147.537C53.0346 147.654 52.9466 147.644 52.8193 147.644C52.4474 147.644 51.6351 147.595 51.4688 147.595C51.3024 147.595 50.5488 147.644 49.942 147.644C49.7463 147.644 49.6484 147.644 49.6484 147.537C49.6497 147.52 49.6542 147.504 49.6618 147.489C49.6693 147.474 49.6798 147.46 49.6925 147.449C49.7053 147.439 49.72 147.43 49.736 147.425C49.7519 147.42 49.7687 147.418 49.7855 147.419H50.2258C50.9207 147.341 51.2045 146.822 51.4883 146.078L55.0409 136.996ZM56.7046 143.035C56.7829 143.035 56.7829 143.035 56.7829 142.937L55.2758 138.944C55.1975 138.738 55.1094 138.738 55.0213 138.944L53.6218 142.937C53.6218 142.996 53.6218 143.035 53.6218 143.035H56.7046Z" fill="#8C734B"/>
<path d="M68.2136 140.901C68.2136 138.65 68.2136 138.229 68.2136 137.769C68.2136 137.31 68.0962 137.026 67.6166 136.967C67.4439 136.958 67.2707 136.958 67.0979 136.967C67.0392 136.967 66.9707 136.879 66.9707 136.83C66.9707 136.781 67.0392 136.713 67.2252 136.713H68.9965H70.8658C71.8435 136.638 72.8212 136.856 73.6746 137.339C73.9834 137.566 74.2369 137.86 74.4165 138.199C74.5961 138.538 74.6971 138.913 74.712 139.296C74.6812 139.952 74.4991 140.592 74.1799 141.166C73.8607 141.74 73.4131 142.232 72.8721 142.604C74.1052 144.15 75.1524 145.462 76.0234 146.362C76.4458 146.883 77.0447 147.232 77.7067 147.341C77.8768 147.38 78.0508 147.4 78.2254 147.4C78.2421 147.398 78.2589 147.4 78.2749 147.405C78.2908 147.411 78.3056 147.419 78.3183 147.43C78.3311 147.441 78.3415 147.454 78.3491 147.469C78.3567 147.484 78.3612 147.5 78.3624 147.517C78.3624 147.595 78.2841 147.625 78.0003 147.625H77.0216C76.4679 147.672 75.9113 147.574 75.4068 147.341C74.5984 146.762 73.9075 146.035 73.3712 145.198C72.7351 144.424 72.0598 143.475 71.7368 143.084C71.7126 143.053 71.6811 143.029 71.6452 143.014C71.6093 142.998 71.5702 142.992 71.5313 142.996H69.6327C69.5446 142.996 69.525 142.996 69.525 143.123V143.465C69.525 144.875 69.525 146 69.5838 146.587C69.6425 147.175 69.7208 147.292 70.1905 147.37C70.4077 147.405 70.6266 147.427 70.8462 147.439C70.9539 147.439 70.9637 147.507 70.9637 147.556C70.9637 147.605 70.8952 147.664 70.719 147.664C69.9067 147.664 68.9574 147.615 68.8595 147.615C68.7617 147.615 67.8809 147.664 67.3915 147.664C67.2252 147.664 67.1469 147.664 67.1469 147.556C67.1468 147.54 67.1501 147.524 67.1566 147.509C67.1631 147.494 67.1727 147.481 67.1846 147.469C67.1966 147.458 67.2107 147.45 67.2261 147.445C67.2415 147.439 67.2579 147.437 67.2741 147.439C67.4261 147.431 67.5769 147.408 67.7243 147.37C68.0179 147.292 68.057 147.028 68.1353 146.587C68.2136 146.147 68.2136 144.855 68.2136 143.436V140.901ZM69.525 142.134C69.5222 142.171 69.531 142.208 69.5504 142.24C69.5697 142.271 69.5985 142.296 69.6327 142.311C70.1684 142.474 70.7268 142.55 71.2866 142.536C71.6778 142.569 72.07 142.484 72.4121 142.291C72.7287 142.017 72.9756 141.672 73.1321 141.284C73.2887 140.896 73.3506 140.476 73.3125 140.06C73.3125 138.249 72.3338 137.202 70.719 137.202C70.3589 137.206 69.9994 137.232 69.6425 137.28C69.6047 137.293 69.5725 137.319 69.5512 137.353C69.5298 137.386 69.5206 137.426 69.525 137.466V142.134Z" fill="#8C734B"/>
<path d="M84.4988 140.901C84.4988 138.65 84.4988 138.22 84.4988 137.769C84.4988 137.319 84.3813 137.026 83.8724 136.967C83.7029 136.957 83.533 136.957 83.3635 136.967C83.3146 136.967 83.2559 136.879 83.2559 136.83C83.2559 136.781 83.3146 136.712 83.481 136.712H85.223H87.2586C88.756 136.712 91.5158 136.585 93.2872 138.376C93.7672 138.861 94.1445 139.438 94.3967 140.072C94.6489 140.705 94.7709 141.384 94.7552 142.066C94.7725 143.592 94.1848 145.063 93.1209 146.157C92.5193 146.737 91.8025 147.186 91.017 147.472C90.2314 147.759 89.3945 147.877 88.5603 147.82C87.9143 147.82 87.1216 147.82 86.4659 147.742L85.223 147.654C85.223 147.654 84.9196 147.654 84.5966 147.654C84.2737 147.654 83.9507 147.654 83.7061 147.654C83.4614 147.654 83.4712 147.654 83.4712 147.546C83.4712 147.515 83.4835 147.485 83.5056 147.463C83.5276 147.441 83.5575 147.429 83.5886 147.429C83.7475 147.42 83.905 147.393 84.0584 147.351C84.3324 147.282 84.3813 147.018 84.4401 146.577C84.4988 146.137 84.5183 144.845 84.5183 143.426L84.4988 140.901ZM85.8689 142.487C85.8689 144.023 85.8689 145.364 85.8689 145.638C85.8608 145.995 85.9205 146.35 86.0451 146.685C86.231 146.949 86.7595 147.243 88.5407 147.243C89.8394 147.282 91.1027 146.816 92.0639 145.941C92.8897 144.986 93.314 143.748 93.2481 142.487C93.273 141.816 93.1598 141.148 92.9157 140.524C92.6716 139.899 92.3017 139.331 91.829 138.856C90.4099 137.397 88.7462 137.212 86.9357 137.212C86.6262 137.217 86.3181 137.253 86.0157 137.319C85.8885 137.319 85.82 137.427 85.82 137.623L85.8689 142.487Z" fill="#8C734B"/>
<path d="M101.88 147.488C101.675 147.38 101.665 147.341 101.665 146.94C101.665 146.215 101.734 145.638 101.743 145.403C101.753 145.168 101.743 145.158 101.88 145.158C102.017 145.158 101.988 145.207 101.988 145.335C101.983 145.509 102.003 145.684 102.047 145.853C102.219 146.328 102.549 146.729 102.982 146.989C103.415 147.25 103.925 147.353 104.425 147.282C105.912 147.282 106.676 146.46 106.676 145.325C106.676 144.19 106.128 143.788 104.787 142.79L104.102 142.271C102.477 141.048 101.939 140.187 101.939 139.169C101.939 137.466 103.309 136.429 105.276 136.429C105.802 136.437 106.326 136.493 106.842 136.595C107.011 136.642 107.186 136.665 107.361 136.664C107.488 136.664 107.537 136.664 107.537 136.771C107.537 136.879 107.469 137.329 107.469 138.318C107.469 138.533 107.469 138.631 107.332 138.631C107.195 138.631 107.234 138.562 107.195 138.445C107.156 138.197 107.08 137.956 106.969 137.73C106.881 137.554 106.372 137.016 105.012 137.016C103.916 137.016 102.996 137.554 102.996 138.592C102.996 139.629 103.476 140.04 104.953 141.048L105.384 141.351C107.214 142.585 107.84 143.593 107.84 144.855C107.847 145.353 107.721 145.844 107.475 146.278C107.229 146.711 106.872 147.071 106.441 147.321C105.708 147.71 104.882 147.89 104.053 147.84C103.303 147.86 102.557 147.727 101.861 147.449" fill="#8C734B"/>
<path d="M125.456 144.14C125.484 143.282 125.743 142.446 126.206 141.723C126.67 140.999 127.32 140.414 128.089 140.03C127.554 139.363 127.258 138.536 127.247 137.681C127.341 136.787 127.774 135.964 128.456 135.379C129.139 134.795 130.02 134.495 130.917 134.54C131.637 134.509 132.354 134.647 133.011 134.941C133.084 134.984 133.142 135.048 133.177 135.125C133.212 135.202 133.223 135.288 133.207 135.371C133.207 135.9 133.139 137.084 133.099 137.329C133.06 137.573 133.011 137.613 132.933 137.613C132.855 137.613 132.825 137.564 132.825 137.299C132.845 136.761 132.651 136.238 132.287 135.841C132.069 135.604 131.805 135.415 131.51 135.285C131.215 135.155 130.897 135.088 130.574 135.088C130.28 135.074 129.986 135.124 129.712 135.232C129.439 135.341 129.191 135.507 128.987 135.719C128.782 135.931 128.625 136.185 128.526 136.462C128.427 136.74 128.388 137.035 128.412 137.329C128.412 138.66 129.322 139.766 131.103 141.703C131.69 142.34 133.794 144.307 134.342 144.776C134.897 143.929 135.196 142.941 135.204 141.929C135.214 141.615 135.102 141.309 134.89 141.077C134.65 140.891 134.352 140.798 134.049 140.813C133.941 140.813 133.843 140.813 133.843 140.715C133.843 140.617 133.98 140.588 134.117 140.588C134.808 140.582 135.498 140.625 136.182 140.715C136.437 140.715 136.486 140.872 136.486 141.038C136.332 142.526 135.735 143.934 134.773 145.08C135.511 145.717 136.307 146.284 137.151 146.773C137.766 147.151 138.459 147.382 139.177 147.448C139.334 147.448 139.422 147.448 139.422 147.566C139.422 147.683 139.285 147.673 139.118 147.673H137.455C136.182 147.673 135.791 147.566 133.892 146.068C133.352 146.66 132.692 147.131 131.957 147.45C131.221 147.769 130.427 147.928 129.625 147.918C129.101 147.952 128.575 147.881 128.078 147.708C127.582 147.534 127.126 147.263 126.737 146.909C126.348 146.556 126.034 146.128 125.814 145.65C125.594 145.173 125.472 144.656 125.456 144.131V144.14ZM133.452 145.755C132.473 144.953 130.809 143.328 130.349 142.819C129.651 142.055 128.997 141.251 128.392 140.412C127.907 140.713 127.509 141.137 127.238 141.64C126.966 142.143 126.831 142.708 126.846 143.279C126.818 143.748 126.885 144.218 127.044 144.66C127.202 145.102 127.448 145.507 127.767 145.852C128.086 146.197 128.471 146.473 128.9 146.665C129.329 146.857 129.792 146.96 130.261 146.969C130.858 146.986 131.453 146.883 132.009 146.666C132.565 146.449 133.073 146.123 133.501 145.706" fill="#8C734B"/>
<path d="M155.678 140.901C155.678 138.65 155.678 138.229 155.678 137.769C155.678 137.309 155.56 137.025 155.071 136.967C154.898 136.957 154.725 136.957 154.552 136.967C154.552 136.967 154.425 136.878 154.425 136.83C154.425 136.781 154.513 136.712 154.66 136.712H156.412H158.565C159.072 136.651 159.586 136.693 160.077 136.834C160.567 136.975 161.025 137.213 161.422 137.534C161.66 137.758 161.851 138.028 161.982 138.327C162.113 138.627 162.182 138.949 162.186 139.276C162.186 141.361 160.61 142.75 158.271 142.75C158.128 142.76 157.984 142.76 157.84 142.75C157.803 142.748 157.768 142.731 157.743 142.704C157.717 142.677 157.703 142.641 157.703 142.604C157.703 142.496 157.782 142.457 158.095 142.457C158.433 142.492 158.774 142.459 159.098 142.359C159.423 142.26 159.724 142.096 159.985 141.878C160.245 141.66 160.458 141.391 160.613 141.089C160.767 140.787 160.86 140.457 160.884 140.118C160.901 139.711 160.833 139.305 160.685 138.926C160.537 138.547 160.311 138.203 160.023 137.916C159.755 137.655 159.433 137.455 159.079 137.332C158.726 137.209 158.35 137.164 157.977 137.201C157.696 137.205 157.417 137.244 157.146 137.319C157.057 137.319 157.038 137.417 157.038 137.593V143.465C157.038 144.884 157.038 146.029 157.097 146.616C157.155 147.203 157.224 147.321 157.703 147.399C157.921 147.434 158.139 147.457 158.359 147.468C158.375 147.466 158.392 147.468 158.407 147.474C158.422 147.479 158.437 147.487 158.448 147.498C158.46 147.509 158.47 147.523 158.477 147.538C158.483 147.553 158.486 147.569 158.486 147.585C158.486 147.644 158.408 147.693 158.232 147.693C157.42 147.693 156.431 147.644 156.353 147.644C156.274 147.644 155.374 147.693 154.855 147.693C154.718 147.693 154.63 147.693 154.63 147.585C154.63 147.569 154.634 147.553 154.64 147.538C154.647 147.523 154.656 147.509 154.668 147.498C154.68 147.487 154.694 147.479 154.71 147.474C154.725 147.468 154.741 147.466 154.758 147.468C154.909 147.459 155.06 147.436 155.208 147.399C155.501 147.321 155.54 147.057 155.599 146.616C155.696 145.569 155.729 144.516 155.697 143.465L155.678 140.901Z" fill="#8C734B"/>
<path d="M170.269 140.901C170.269 138.65 170.269 138.23 170.269 137.77C170.269 137.31 170.142 137.026 169.643 136.967C169.477 136.957 169.31 136.957 169.144 136.967C169.075 136.967 169.017 136.879 169.017 136.83C169.017 136.781 169.075 136.713 169.251 136.713H171.023H172.912C173.889 136.645 174.865 136.863 175.72 137.339C176.028 137.568 176.28 137.862 176.46 138.201C176.639 138.539 176.741 138.914 176.758 139.296C176.727 139.952 176.545 140.592 176.226 141.166C175.907 141.74 175.459 142.232 174.918 142.604C176.141 144.151 177.179 145.462 178.06 146.362C178.477 146.884 179.073 147.233 179.733 147.341C179.91 147.38 180.09 147.4 180.271 147.4C180.303 147.4 180.334 147.412 180.358 147.434C180.382 147.455 180.396 147.485 180.399 147.517C180.399 147.596 180.31 147.625 180.036 147.625H179.058C178.504 147.676 177.946 147.578 177.443 147.341C176.631 146.763 175.937 146.036 175.398 145.198C174.771 144.425 174.096 143.475 173.763 143.084C173.74 143.052 173.709 143.027 173.673 143.011C173.636 142.996 173.597 142.99 173.558 142.996H171.649C171.591 142.996 171.542 142.996 171.542 143.123V143.466C171.542 144.875 171.542 146 171.61 146.588C171.679 147.175 171.757 147.292 172.207 147.37C172.428 147.404 172.65 147.427 172.873 147.439C172.99 147.439 173 147.507 173 147.556C173 147.605 172.931 147.664 172.755 147.664C171.933 147.664 170.974 147.615 170.925 147.615C170.876 147.615 169.888 147.664 169.428 147.664C169.261 147.664 169.183 147.664 169.183 147.556C169.183 147.525 169.195 147.495 169.217 147.473C169.239 147.451 169.269 147.439 169.3 147.439C169.459 147.43 169.616 147.407 169.77 147.37C170.054 147.292 170.093 147.028 170.152 146.588C170.258 145.541 170.294 144.488 170.26 143.436L170.269 140.901ZM171.551 142.135C171.555 142.17 171.567 142.204 171.586 142.235C171.604 142.265 171.629 142.291 171.659 142.311C172.195 142.471 172.753 142.547 173.313 142.536C173.707 142.571 174.103 142.486 174.448 142.291C174.765 142.018 175.011 141.673 175.166 141.284C175.321 140.896 175.381 140.476 175.339 140.06C175.339 138.249 174.36 137.202 172.745 137.202C172.388 137.206 172.032 137.232 171.679 137.28C171.64 137.293 171.607 137.318 171.584 137.352C171.561 137.385 171.549 137.426 171.551 137.466V142.135Z" fill="#8C734B"/>
<path d="M187.915 143.455C187.915 144.865 187.915 146.019 187.994 146.607C188.072 147.194 188.092 147.311 188.522 147.38C188.752 147.42 188.984 147.446 189.217 147.458C189.233 147.457 189.25 147.459 189.265 147.464C189.28 147.469 189.295 147.478 189.306 147.489C189.318 147.5 189.328 147.513 189.334 147.528C189.341 147.543 189.344 147.559 189.344 147.576C189.344 147.634 189.266 147.683 189.09 147.683C188.258 147.683 187.279 147.634 187.211 147.634C187.142 147.634 186.232 147.683 185.723 147.683C185.567 147.683 185.479 147.683 185.479 147.576C185.479 147.468 185.479 147.458 185.625 147.458C185.772 147.452 185.917 147.426 186.056 147.38C186.359 147.311 186.408 147.047 186.467 146.607C186.526 146.166 186.555 144.865 186.555 143.455V140.901C186.555 138.65 186.555 138.219 186.555 137.769C186.555 137.319 186.398 137.055 186.076 136.996C185.92 136.975 185.762 136.975 185.606 136.996C185.557 136.996 185.488 136.908 185.488 136.859C185.488 136.81 185.557 136.742 185.733 136.742H187.25H188.757C188.933 136.742 189.012 136.742 189.012 136.859C189.012 136.977 188.933 136.996 188.884 136.996C188.76 136.987 188.636 136.987 188.512 136.996C188.082 137.084 188.013 137.29 187.974 137.799C187.935 138.308 187.974 138.679 187.974 140.93L187.915 143.455Z" fill="#8C734B"/>
<path d="M201.294 145.794C202.165 143.837 204.142 138.885 204.465 137.848C204.533 137.664 204.582 137.474 204.612 137.28C204.615 137.212 204.592 137.145 204.549 137.093C204.506 137.04 204.444 137.006 204.377 136.996C204.211 136.971 204.043 136.971 203.878 136.996C203.838 136.999 203.798 136.986 203.767 136.961C203.736 136.935 203.716 136.899 203.711 136.859C203.711 136.761 203.809 136.742 204.054 136.742H205.522H206.706C206.863 136.742 206.931 136.742 206.931 136.83C206.934 136.851 206.932 136.874 206.926 136.894C206.919 136.915 206.908 136.934 206.893 136.95C206.878 136.966 206.859 136.979 206.839 136.987C206.818 136.995 206.796 136.998 206.775 136.996C206.52 136.989 206.267 137.046 206.041 137.163C205.855 137.27 205.61 137.476 205.209 138.474C205.042 138.905 204.298 140.647 203.545 142.389C202.566 144.512 201.95 146.088 201.588 146.812C201.177 147.683 201.079 147.908 200.942 147.908C200.805 147.908 200.668 147.713 200.374 147.028L196.684 138.102C196.332 137.29 196.127 137.123 195.637 137.026C195.442 137.007 195.245 137.007 195.05 137.026C194.972 137.026 194.933 136.928 194.933 136.859C194.933 136.791 195.079 136.771 195.314 136.771H197.086H198.485C198.769 136.771 198.896 136.771 198.896 136.859C198.896 136.947 198.896 137.026 198.769 137.026C198.581 136.999 198.39 136.999 198.201 137.026C198.148 137.045 198.103 137.081 198.073 137.129C198.043 137.177 198.029 137.233 198.035 137.29C198.123 137.712 198.261 138.123 198.446 138.513L201.294 145.794Z" fill="#8C734B"/>
<path d="M215.347 143.455C215.347 144.865 215.347 146.019 215.406 146.607C215.465 147.194 215.513 147.311 215.964 147.38C216.187 147.421 216.412 147.447 216.639 147.458C216.67 147.458 216.7 147.471 216.722 147.493C216.744 147.515 216.756 147.544 216.756 147.576C216.756 147.634 216.688 147.683 216.521 147.683C215.68 147.683 214.701 147.634 214.642 147.634C214.584 147.634 213.664 147.683 213.145 147.683C212.988 147.683 212.9 147.683 212.9 147.576C212.9 147.559 212.904 147.543 212.91 147.528C212.917 147.513 212.926 147.5 212.938 147.489C212.95 147.478 212.964 147.469 212.98 147.464C212.995 147.459 213.011 147.457 213.028 147.458C213.18 147.452 213.332 147.426 213.478 147.38C213.781 147.311 213.83 147.047 213.889 146.607C213.948 146.166 213.967 144.865 213.967 143.455V140.901C213.967 138.65 213.967 138.219 213.967 137.769C213.967 137.319 213.83 137.055 213.507 136.996C213.351 136.975 213.193 136.975 213.037 136.996C212.969 136.996 212.93 136.908 212.93 136.859C212.93 136.81 212.988 136.742 213.174 136.742H214.691H216.189C216.365 136.742 216.424 136.742 216.424 136.859C216.424 136.977 216.365 136.996 216.306 136.996C216.179 136.988 216.052 136.988 215.924 136.996C215.513 137.084 215.425 137.29 215.396 137.799V143.485L215.347 143.455Z" fill="#8C734B"/>
<path d="M226.445 143.504C226.445 145.638 226.445 146.519 226.758 146.773C227.072 147.028 227.571 147.106 228.716 147.106C229.499 147.106 230.184 147.106 230.536 146.665C230.724 146.421 230.851 146.136 230.908 145.834C230.908 145.746 230.908 145.657 231.055 145.657C231.202 145.657 231.153 145.726 231.153 145.883C231.119 146.374 231.044 146.862 230.928 147.341C230.839 147.674 230.761 147.722 229.949 147.722C228.872 147.722 227.992 147.722 227.326 147.674C226.661 147.625 226.132 147.674 225.682 147.674C225.613 147.674 225.349 147.674 225.065 147.674H224.185C224.048 147.674 223.95 147.674 223.95 147.566C223.95 147.535 223.962 147.505 223.984 147.483C224.006 147.461 224.036 147.448 224.067 147.448C224.229 147.441 224.39 147.415 224.547 147.37C224.83 147.302 224.86 147.037 224.928 146.597C225.015 145.549 225.045 144.497 225.016 143.446V140.891C225.016 138.64 225.016 138.22 225.016 137.76C225.016 137.3 224.889 137.016 224.4 136.957C224.227 136.947 224.054 136.947 223.881 136.957C223.832 136.957 223.764 136.869 223.764 136.82C223.764 136.771 223.832 136.703 223.999 136.703H225.711H227.365C227.522 136.703 227.62 136.703 227.62 136.82C227.62 136.938 227.541 136.918 227.492 136.918C227.443 136.918 227.169 136.918 226.993 136.918C226.543 136.996 226.455 137.231 226.435 137.74C226.416 138.249 226.435 138.621 226.435 140.872L226.445 143.504Z" fill="#8C734B"/>
<path d="M239.021 140.901C239.021 138.65 239.021 138.229 239.021 137.769C239.021 137.309 238.904 137.025 238.405 136.967C238.232 136.957 238.059 136.957 237.886 136.967C237.886 136.967 237.769 136.879 237.769 136.83C237.769 136.781 237.847 136.712 237.994 136.712H239.745C239.853 136.712 242.985 136.712 243.347 136.712C243.577 136.7 243.806 136.674 244.032 136.634C244.097 136.604 244.167 136.584 244.238 136.575C244.296 136.575 244.316 136.634 244.316 136.702C244.316 136.771 244.218 136.996 244.179 137.378C244.179 137.525 244.13 138.19 244.101 138.356C244.071 138.523 244.032 138.503 243.954 138.503C243.875 138.503 243.846 138.425 243.846 138.317C243.844 138.138 243.817 137.961 243.768 137.789C243.65 137.573 243.504 137.466 242.691 137.358C242.417 137.358 240.685 137.309 240.519 137.309C240.352 137.309 240.431 137.358 240.431 137.466V141.38C240.431 141.488 240.431 141.537 240.519 141.537C240.607 141.537 242.691 141.537 243.014 141.488C243.337 141.439 243.601 141.488 243.768 141.292C243.934 141.097 243.934 141.126 243.973 141.126C244.012 141.126 244.061 141.126 244.061 141.224C244.061 141.322 243.973 141.566 243.934 142.036C243.934 142.31 243.875 142.858 243.875 142.966C243.875 143.074 243.875 143.23 243.738 143.23C243.723 143.232 243.707 143.23 243.692 143.224C243.677 143.219 243.663 143.21 243.652 143.199C243.641 143.188 243.632 143.174 243.627 143.159C243.622 143.144 243.619 143.129 243.621 143.113C243.62 142.977 243.6 142.842 243.562 142.711C243.513 142.506 243.386 142.34 242.799 142.251C242.398 142.251 240.783 142.193 240.528 142.193C240.44 142.193 240.431 142.242 240.431 142.291V143.504C240.431 144.013 240.431 145.706 240.431 145.98C240.431 146.959 240.724 147.155 242.212 147.155C242.722 147.18 243.234 147.127 243.729 146.998C243.924 146.917 244.092 146.781 244.213 146.608C244.335 146.435 244.404 146.231 244.414 146.019C244.414 145.863 244.472 145.814 244.551 145.814C244.629 145.814 244.668 145.922 244.668 146.019C244.631 146.494 244.559 146.965 244.453 147.429C244.345 147.81 244.198 147.81 243.621 147.81C242.505 147.81 241.664 147.81 240.998 147.761C240.333 147.712 239.971 147.761 239.745 147.761H239.109H238.229C238.082 147.761 237.994 147.761 237.994 147.654C237.992 147.638 237.994 147.622 238 147.607C238.005 147.592 238.013 147.579 238.025 147.567C238.036 147.556 238.049 147.548 238.064 147.542C238.079 147.537 238.095 147.535 238.111 147.536C238.258 147.536 238.444 147.478 238.571 147.468C238.865 147.419 238.904 147.125 238.972 146.685C239.041 146.244 239.051 144.953 239.051 143.534L239.021 140.901Z" fill="#8C734B"/>
<path d="M260.317 143.984C260.317 142.8 260.317 142.624 259.661 142.506C259.492 142.496 259.322 142.496 259.152 142.506C259.152 142.506 259.045 142.418 259.045 142.369C259.045 142.32 259.113 142.252 259.28 142.252C259.955 142.252 260.973 142.252 261.061 142.252H262.529C262.695 142.252 262.783 142.252 262.783 142.369C262.774 142.402 262.757 142.432 262.733 142.456C262.709 142.48 262.679 142.497 262.646 142.506C262.526 142.498 262.405 142.498 262.284 142.506C261.863 142.565 261.746 142.8 261.717 143.319C261.687 143.837 261.717 144.199 261.717 144.816V146.431C261.717 147.106 261.717 147.126 261.501 147.223C260.498 147.671 259.409 147.895 258.311 147.879C256.529 147.964 254.776 147.409 253.368 146.313C252.739 145.728 252.249 145.007 251.937 144.206C251.625 143.404 251.498 142.543 251.566 141.685C251.633 140.828 251.894 139.997 252.328 139.254C252.763 138.512 253.359 137.877 254.073 137.398C255.297 136.731 256.684 136.419 258.076 136.497C258.85 136.507 259.623 136.579 260.386 136.713C260.78 136.811 261.183 136.87 261.589 136.889C261.736 136.889 261.785 136.947 261.785 137.006C261.785 137.212 261.697 137.623 261.697 139.061C261.697 139.316 261.619 139.384 261.521 139.384C261.423 139.384 261.423 139.286 261.423 139.159C261.391 138.81 261.273 138.474 261.08 138.181C260.699 137.632 259.563 137.055 257.596 137.055C256.474 136.987 255.363 137.312 254.455 137.975C253.951 138.44 253.557 139.012 253.303 139.648C253.049 140.285 252.941 140.971 252.987 141.655C252.984 143.144 253.548 144.578 254.562 145.667C255.071 146.166 255.674 146.557 256.337 146.819C256.999 147.081 257.706 147.209 258.418 147.194C258.97 147.225 259.522 147.131 260.033 146.92C260.229 146.812 260.337 146.754 260.337 146.48L260.317 143.984Z" fill="#8C734B"/>
<path d="M271.033 140.901C271.033 138.65 271.033 138.229 271.033 137.769C271.033 137.309 270.916 137.025 270.426 136.967C270.253 136.957 270.08 136.957 269.908 136.967C269.849 136.967 269.78 136.879 269.78 136.83C269.78 136.781 269.849 136.712 270.025 136.712H271.767C271.875 136.712 275.016 136.712 275.349 136.712C275.582 136.703 275.814 136.677 276.044 136.634C276.109 136.605 276.178 136.586 276.249 136.575C276.308 136.575 276.318 136.634 276.318 136.702C276.318 136.771 276.23 136.996 276.2 137.378C276.2 137.525 276.132 138.19 276.102 138.356C276.073 138.523 276.044 138.503 275.975 138.503C275.907 138.503 275.868 138.425 275.868 138.317C275.857 138.138 275.824 137.96 275.77 137.789C275.672 137.573 275.505 137.466 274.683 137.358C274.449 137.358 272.726 137.309 272.53 137.309C272.335 137.309 272.442 137.358 272.442 137.466V141.38C272.442 141.488 272.442 141.537 272.53 141.537C272.618 141.537 274.683 141.537 275.046 141.488C275.408 141.439 275.623 141.488 275.77 141.292C275.917 141.097 275.926 141.126 275.985 141.126C276.044 141.126 276.083 141.126 276.083 141.224C276.024 141.491 275.985 141.763 275.965 142.036C275.965 142.31 275.887 142.858 275.887 142.966C275.887 143.074 275.887 143.23 275.76 143.23C275.633 143.23 275.662 143.23 275.662 143.113C275.671 142.949 275.644 142.785 275.584 142.633C275.535 142.428 275.388 142.261 274.811 142.173C274.39 142.173 272.795 142.114 272.53 142.114C272.442 142.114 272.442 142.163 272.442 142.212V143.426C272.442 143.935 272.442 145.628 272.442 145.902C272.442 146.881 272.736 147.076 274.223 147.076C274.731 147.102 275.239 147.049 275.731 146.92C275.929 146.842 276.1 146.708 276.224 146.534C276.347 146.36 276.417 146.154 276.425 145.941C276.425 145.784 276.425 145.736 276.553 145.736C276.68 145.736 276.68 145.843 276.68 145.941C276.637 146.414 276.568 146.885 276.474 147.35C276.367 147.732 276.22 147.732 275.633 147.732C274.497 147.732 273.626 147.732 273.02 147.683C272.413 147.634 271.982 147.683 271.767 147.683H271.101C270.827 147.683 270.475 147.683 270.25 147.683C270.025 147.683 270.015 147.683 270.015 147.575C270.014 147.56 270.016 147.544 270.021 147.529C270.026 147.514 270.035 147.5 270.046 147.489C270.057 147.478 270.071 147.469 270.086 147.464C270.101 147.458 270.117 147.457 270.133 147.458C270.26 147.458 270.446 147.399 270.573 147.39C270.886 147.341 270.916 147.047 270.994 146.607C271.072 146.166 271.072 144.874 271.072 143.455L271.033 140.901Z" fill="#8C734B"/>
<path d="M283.991 147.488C283.766 147.38 283.766 147.341 283.766 146.94C283.766 146.215 283.844 145.638 283.844 145.403C283.844 145.168 283.844 145.158 283.971 145.158C284.098 145.158 284.108 145.207 284.108 145.335C284.099 145.636 284.16 145.936 284.287 146.21C284.413 146.485 284.601 146.726 284.836 146.916C285.071 147.105 285.347 147.238 285.641 147.303C285.936 147.368 286.242 147.365 286.535 147.292C288.013 147.292 288.786 146.47 288.786 145.335C288.786 144.199 288.219 143.798 286.888 142.8L286.212 142.281C284.578 141.058 284.049 140.197 284.049 139.179C284.049 137.476 285.41 136.438 287.387 136.438C287.909 136.446 288.43 136.502 288.943 136.605C289.112 136.652 289.286 136.675 289.461 136.673C289.589 136.673 289.618 136.673 289.618 136.781C289.618 136.889 289.559 137.339 289.559 138.327C289.559 138.543 289.559 138.64 289.442 138.64C289.324 138.64 289.324 138.572 289.305 138.455C289.261 138.208 289.186 137.967 289.08 137.74C288.982 137.564 288.473 137.026 287.122 137.026C286.036 137.026 285.165 137.564 285.165 138.601C285.165 139.639 285.645 140.05 287.122 141.058L287.553 141.361C289.373 142.594 290 143.602 290 144.865C290.006 145.361 289.882 145.85 289.64 146.283C289.398 146.716 289.046 147.077 288.62 147.331C287.877 147.721 287.041 147.901 286.203 147.85C285.459 147.87 284.72 147.736 284.03 147.458" fill="#8C734B"/>
<path fill-rule="evenodd" clip-rule="evenodd" d="M30.9074 3.01824C29.415 4.93472 28.3609 5.89087 28.018 5.63547C27.7237 5.41174 26.5595 4.50837 25.4313 3.62822C22.9271 1.66952 22.6773 1.80463 21.331 5.83812C20.4674 8.42579 20.1033 8.98512 19.4513 8.71706C18.4628 8.3097 13.8736 7.03906 13.3656 7.03062C13.1623 7.02639 12.9972 8.56718 12.9972 10.452V13.8797L10.419 13.8861C9.00074 13.8903 7.36448 14.019 6.78025 14.1773L5.71972 14.4602L6.65748 17.8351C7.17186 19.6904 7.5952 21.2987 7.5952 21.4064C7.5952 21.514 6.76755 21.7462 5.7536 21.9214C0.796088 22.7825 0.440469 23.4221 2.92981 27.0313C5.0339 30.0812 5.07623 29.6675 2.46835 31.5354C-0.380849 33.5765 -0.645438 34.3616 1.06916 35.7019C1.82274 36.2908 2.95519 37.192 3.58388 37.7007L4.72906 38.6294L2.74354 41.5527C0.459526 44.9171 0.531488 45.0838 4.8455 46.4874C6.22353 46.937 7.38989 47.3317 7.43858 47.3676C7.48726 47.4013 7.12104 48.8936 6.62359 50.6834L5.71972 53.9338L6.78025 54.2188C7.36448 54.375 9.00074 54.5058 10.419 54.5079L12.9972 54.5143V57.942C12.9972 59.8268 13.1623 61.3613 13.3656 61.3528C13.5667 61.3423 15.1627 61.0299 16.9112 60.6563C20.5309 59.8817 20.624 59.907 21.077 61.7053C22.3344 66.697 22.834 66.8596 26.9405 63.6155C28.1725 62.6425 28.9282 62.3132 29.0594 62.6931C29.1737 63.0182 30.1686 64.4133 31.2715 65.7937L33.2739 68.3012L34.417 66.9165C35.0478 66.1546 36.0639 64.8164 36.6777 63.9426C37.77 62.3892 38.5299 61.9143 38.5299 62.786C38.5299 63.2102 42.9667 66.2644 43.5785 66.2644C43.7436 66.2644 44.3638 64.9367 44.9586 63.3136C46.2837 59.6854 46.0826 59.8015 49.6134 60.6416C51.2137 61.0236 52.6891 61.3423 52.8923 61.3528C53.0934 61.3613 53.2585 59.8268 53.2585 57.942V54.5143L55.8368 54.5079C60.9298 54.4953 61.224 54.1344 59.7084 49.7632L58.8257 47.2135L60.3371 46.8821C62.2358 46.4663 65.0448 45.1471 65.0448 44.6722C65.0448 44.0327 62.5703 39.385 62.0644 39.0705C61.5077 38.7286 65.4449 34.9822 66.3932 34.9505C67.5659 34.9125 66.9944 34.0872 64.3294 31.9681C62.6486 30.63 61.8083 29.6464 62.0729 29.3235C62.6825 28.5805 65.0448 24.0785 65.0448 23.6585C65.0448 23.2215 62.9153 22.3752 60.7477 21.9488C58.8913 21.5837 58.8998 21.6238 59.9793 17.7507C60.9869 14.1351 60.7626 13.8966 56.3279 13.8861L53.2585 13.8797V10.452C53.2585 6.52828 53.3051 6.55574 49.1414 7.98466C47.0648 8.69595 46.2859 8.79304 46.1334 8.35191C44.8676 4.70468 43.8071 2.12754 43.57 2.12754C42.9646 2.12754 38.5299 5.18803 38.5299 5.60594C38.5299 6.46709 37.7446 6.02384 36.9254 4.69834C36.4682 3.95749 35.4542 2.59824 34.6753 1.67588L33.2591 0L30.9074 3.01824ZM77.8112 34.197C77.8112 56.5553 77.9784 68.2231 78.3022 68.2231C78.624 68.2231 78.7933 56.5553 78.7933 34.197C78.7933 11.8387 78.624 0.170951 78.3022 0.170951C77.9784 0.170951 77.8112 11.8387 77.8112 34.197ZM112.673 1.10599C97.1882 5.36321 89.6376 19.9732 96.7881 31.8436C97.728 33.4076 98.6933 34.7563 98.9261 34.8408C99.1611 34.9231 100.306 35.7167 101.47 36.6011C109.904 43.0027 123.303 37.9329 124.019 28.0697C124.228 25.1781 123.995 23.4094 123.278 22.428C122.668 21.5985 122.617 21.8623 122.846 24.7117C123.225 29.3973 120.731 34.9315 118.244 34.9315C117.852 34.9315 116.834 35.2924 115.979 35.7336C106.483 40.6282 93.1113 30.0728 95.4779 19.549C98.3694 6.68447 110.122 1.73498 130.964 4.60549L135.259 5.19647V35.4212C135.259 65.2555 135.246 65.6607 134.243 66.9335L133.224 68.2231H137.714H142.204L141.186 66.9335C140.182 65.6607 140.17 65.2512 140.17 35.8349V6.02594L141.275 6.28978C157.815 10.2325 174.324 10.7158 179.574 7.41265C182.198 5.75788 182.67 5.13525 180.42 6.29612C176.011 8.57142 166.363 8.29702 154.409 5.56159C131.863 0.401015 119.887 -0.875922 112.673 1.10599ZM34.8954 6.3109L36.2205 8.04163L34.7494 9.47478L33.2803 10.9079L31.9023 9.47478L30.5221 8.03741L31.7033 6.3109C33.1618 4.17491 33.2613 4.17491 34.8954 6.3109ZM25.9859 7.20791C27.2453 8.28857 27.0908 11.9886 25.7869 11.9021C24.1548 11.7965 22.7387 9.47899 23.2891 7.8179C23.9791 5.72623 24.1993 5.67768 25.9859 7.20791ZM43.2483 7.81158C43.6547 8.78249 43.9193 9.62674 43.8367 9.68373C41.3177 11.4398 40.4117 11.9949 40.2953 11.8514C38.6802 9.84838 38.6421 8.47645 40.1641 7.2797C42.1899 5.68615 42.3698 5.7178 43.2483 7.81158ZM18.3252 10.5006C20.0123 11.0873 20.7891 15.3488 19.2079 15.3488C16.6805 15.3488 15.4527 14.2913 15.4527 12.1173C15.4527 9.7576 15.7342 9.59932 18.3252 10.5006ZM51.2963 12.1427C51.2963 14.2766 49.9691 15.3256 47.2447 15.3446C46.2414 15.353 46.8997 11.0789 47.9814 10.5597C50.4602 9.36715 51.2963 9.76606 51.2963 12.1427ZM30.954 12.4761C31.7118 13.9388 31.553 16.5181 30.6724 17.0605C29.559 17.7486 28.1619 14.437 28.708 12.4107C29.2965 10.2283 29.794 10.2431 30.954 12.4761ZM37.516 15.583C36.2862 17.5776 35.9115 17.5861 35.2976 15.6274C34.7494 13.8798 34.9907 13.0059 36.5105 11.2541C37.8547 9.70695 38.7522 13.5758 37.516 15.583ZM24.4766 14.3082C25.5392 15.4121 25.7954 16.0938 25.6726 17.4805L25.518 19.245L23.922 17.9955C22.6053 16.9634 22.3259 16.4083 22.3259 14.8232C22.3259 12.5289 22.6858 12.4424 24.4766 14.3082ZM44.2135 14.9815C43.9214 16.8051 42.1115 19.1733 40.9537 19.2472C39.8635 19.3168 40.8796 15.144 42.211 14.0803C44.2643 12.4424 44.5966 12.5922 44.2135 14.9815ZM13.7529 18.652C14.3499 20.6761 14.3351 20.7331 13.2301 20.7331C12.6056 20.7331 11.7484 20.866 11.325 21.0286C10.5524 21.3241 9.97024 20.3299 9.25688 17.4995C8.60915 14.9309 12.9866 16.0537 13.7529 18.652ZM57.2889 17.5502C56.8338 20.6297 54.1391 22.1261 51.9356 20.5283C51.8805 20.4882 52.0753 19.5173 52.3695 18.367L52.9008 16.2796L55.1679 16.4252C57.1153 16.5518 57.4117 16.708 57.2889 17.5502ZM167.94 18.5296C167.478 19.6081 166.763 21.4697 166.348 22.6707C165.933 23.8695 163.878 28.6249 161.78 33.2346C159.682 37.8464 157.826 42.0571 157.654 42.5954C157.417 43.3383 156.623 43.7077 154.363 44.1256C152.722 44.4316 150.715 45.0986 149.907 45.6094L148.431 46.5402L152.157 46.3017C156.316 46.0357 156.257 45.9872 154.9 48.5115C154.358 49.5183 153.918 50.6307 153.918 50.9895C153.918 52.2073 151.814 56.7115 150.385 58.5541L148.961 60.3904H151.211C153.33 60.3904 153.429 60.3313 152.919 59.3815C152.015 57.6993 156.115 46.6816 157.644 46.6816C158.01 46.6816 160.675 47.4794 163.564 48.4524C169.127 50.3288 171.646 50.4618 174.792 49.0413C176.17 48.4208 176.083 48.3849 172.561 48.119C170.118 47.9332 167.978 47.4161 166.153 46.5697C164.646 45.8732 162.436 45.0247 161.242 44.6849C158.158 43.809 158.171 44.0222 160.87 38.1144C163.361 32.6626 165.88 26.6851 166.443 24.8953C166.672 24.1692 167.36 25.3765 169.098 29.5451C170.389 32.6436 172.83 38.3719 174.519 42.2745C179.093 52.8448 180.518 57.1653 179.931 58.7018C179.667 59.3962 179.451 60.059 179.451 60.1772C179.451 60.2954 181.481 60.3904 183.962 60.3904H188.473L187.207 59.0438C185.968 57.7225 181.862 48.8134 179.819 43.009C178.82 40.1744 173.788 27.9959 171.119 21.9573C170.406 20.3426 169.587 18.4683 169.301 17.795C168.78 16.5729 168.778 16.573 167.94 18.5296ZM18.5835 18.0462C19.5614 18.4536 20.3616 18.8419 20.3616 18.9073C20.3616 18.9728 20.5711 19.7558 20.8293 20.6465L21.295 22.2696L19.7244 21.9383C17.7791 21.5309 17.6478 21.4085 16.6974 19.1416C15.8401 17.0943 16.0306 16.9824 18.5835 18.0462ZM33.9153 22.2443L33.2803 23.7513L32.6664 22.2718C32.1732 21.0856 32.1732 20.4207 32.6643 18.9327L33.2803 17.0774L33.9153 18.9073C34.4361 20.4059 34.4361 21.0117 33.9153 22.2443ZM50.3141 17.8119C50.3141 19.5806 48.8514 21.5879 47.3442 21.8876C45.3756 22.2823 45.346 22.2528 45.8117 20.465C46.2774 18.6878 50.3141 16.3091 50.3141 17.8119ZM209.511 18.0209C191.68 22.0607 187.198 46.7513 202.384 57.2983C208.48 61.5344 219.405 61.8721 228.183 58.0961C229.921 57.3489 230.025 57.18 230.025 55.0947V52.8827L228.147 54.9111C223.692 59.7234 214.833 61.3824 208.745 58.5414C196.207 52.6907 195.754 26.3031 208.085 20.2497C214.649 17.0288 223.342 18.5106 228.45 23.7197L230.025 25.3259V23.2553C230.025 19.2915 217.739 16.155 209.511 18.0209ZM242.264 19.0847C243.196 20.2666 243.283 21.0265 243.283 28.0845V35.7927L233.89 37.6247C225.455 39.269 223.903 39.4336 218.656 39.2457C212.509 39.0283 211.967 39.5011 217.47 40.2778C220.936 40.7654 233.34 40.2187 238.617 39.3428C243.761 38.4901 243.283 37.572 243.278 48.273C243.276 55.5021 243.111 58.0117 242.571 59.0438L241.866 60.3904H245.795H249.722L248.958 59.3013C248.323 58.3979 248.193 56.4181 248.193 47.6335V37.0527L253.225 35.9869C255.994 35.4022 259.916 34.902 261.94 34.8766C265.399 34.8365 265.505 34.8049 263.659 34.3511C261.802 33.8952 255.247 34.0999 250.395 34.7648L248.193 35.0645V27.5632C248.193 20.5347 248.259 19.9901 249.26 18.9285L250.327 17.795H245.787H241.246L242.264 19.0847ZM267.306 19.0847C268.832 21.018 268.894 36.2507 267.374 35.4381C266.853 35.1595 266.245 34.94 266.023 34.9505C265.803 34.9632 266.231 35.2988 266.974 35.7019L268.324 36.4301V47.3233C268.324 56.3886 268.195 58.3958 267.56 59.3013L266.794 60.3904H270.78H274.763L273.999 59.3013C272.598 57.3088 272.875 20.4418 274.302 18.9285L275.369 17.795H270.828H266.288L267.306 19.0847ZM282.071 19.625C283.389 22.0776 283.603 56.1479 282.316 58.6111C281.912 59.3815 281.582 60.097 281.582 60.2004C281.582 60.306 283.362 60.3904 285.538 60.3904H289.492L288.728 59.3013C287.371 57.37 287.602 20.8344 288.982 19.0847L290 17.795H285.544H281.088L282.071 19.625ZM30.1792 22.6411L30.1813 24.3043L28.9536 22.9831C28.0942 22.0565 27.7322 21.1214 27.7449 19.8508L27.7618 18.0399L28.9684 19.5089C29.7241 20.427 30.1792 21.6006 30.1792 22.6411ZM37.5774 23.0084L36.5656 24.2938V22.6221C36.5656 21.7019 36.9529 20.4059 37.425 19.7411L38.2844 18.5296L38.4368 20.1273C38.5405 21.1805 38.2463 22.1599 37.5774 23.0084ZM26.261 22.8269C26.2632 23.1561 26.4092 23.9772 26.5828 24.6505L26.8982 25.8747L25.789 24.8953C24.7814 24.0067 23.3081 21.6871 23.3081 20.9885C23.3081 20.8344 23.9707 21.0497 24.7814 21.4676C25.5921 21.8855 26.2568 22.4976 26.261 22.8269ZM42.7212 22.0797C42.4206 23.2891 40.289 25.5665 39.4147 25.6108C37.9351 25.6868 41.1082 21.2628 42.8778 20.7816C42.9752 20.7542 42.9053 21.3388 42.7212 22.0797ZM10.2454 25.1486C11.435 26.9447 11.4732 27.1432 10.6773 27.3922C10.1989 27.5442 9.28228 27.8756 8.64513 28.131C7.2925 28.6734 6.42461 28.1225 5.34082 26.033C4.94709 25.271 4.68462 24.6463 4.75871 24.642C4.8582 24.6378 7.68624 23.6479 8.88011 23.2025C8.91186 23.192 9.52571 24.0658 10.2454 25.1486ZM16.89 24.6019C18.2808 26.548 18.2045 26.6873 15.8443 26.5142C14.1086 26.3875 13.6344 26.111 12.8533 24.7729L11.924 23.1814H13.899C15.5204 23.1814 16.0581 23.4368 16.89 24.6019ZM54.2259 23.5487C54.1794 24.6652 51.709 26.6092 50.3374 26.6092C48.5974 26.6092 48.5614 26.4973 49.6833 24.6019C50.4813 23.2553 54.2746 22.3752 54.2259 23.5487ZM61.2685 24.6062C62.1279 25.4631 59.7105 28.6523 58.487 28.2724C54.8588 27.1474 54.9118 27.2635 56.7851 24.5639C57.7102 23.2321 59.9095 23.2511 61.2685 24.6062ZM32.4124 25.0177C32.6156 25.7586 32.7342 26.9701 32.6728 27.7088C32.4971 29.8702 32.9945 29.2728 33.8963 26.2419C34.7134 23.4854 34.743 23.4558 35.215 24.8193C35.5432 25.7691 35.5262 26.5902 35.16 27.3901C34.724 28.3441 34.7599 28.5657 35.3484 28.5657C35.7485 28.5657 36.0745 28.1605 36.0745 27.6624C36.0745 27.1664 36.5169 26.3622 37.0566 25.8747C38.0134 25.0093 38.0388 25.0198 38.0388 26.2018C38.0388 27.4619 36.0088 29.8068 35.4246 29.2243C35.2404 29.0427 35.0923 29.3045 35.0923 29.8068C35.0923 30.5181 35.2235 30.5899 35.6807 30.134C36.6079 29.2095 37.1434 29.4459 36.5656 30.5245C36.2756 31.0648 36.1528 31.5038 36.2925 31.5038C36.4322 31.5038 36.9931 30.63 37.5393 29.562C38.0854 28.494 38.9745 27.3859 39.5121 27.0967C40.9748 26.3158 40.7356 27.2761 38.9681 29.2834C37.245 31.2442 37.2789 31.3181 39.4359 30.2437C41.866 29.0364 43.1107 29.5894 40.9854 30.9318C40.0392 31.5291 38.8792 31.9238 38.4072 31.8078C37.9351 31.6917 37.425 31.7951 37.2726 32.0399C37.1223 32.2826 37.3699 32.4831 37.8229 32.4831C38.5384 32.4831 38.5596 32.5971 37.9753 33.3169C37.3403 34.102 37.3721 34.102 38.5151 33.3169C40.1197 32.2151 44.1881 32.1349 42.7317 33.2324C42.2068 33.6292 41.1717 33.9522 40.4287 33.9522C39.6857 33.9522 38.9406 34.1717 38.7755 34.4418C38.5892 34.7415 39.3322 34.9315 40.6806 34.9315C41.8956 34.9315 43.0408 35.1742 43.225 35.4697C43.4536 35.8391 42.8059 35.9742 41.1653 35.8961C36.9551 35.6977 35.1536 36.3562 39.0676 36.6644C40.8901 36.8079 43.3943 38.8616 41.7072 38.832C41.1738 38.8215 40.1853 38.4985 39.5121 38.1144C37.5118 36.9746 37.3509 37.2722 38.9681 39.1106C40.7526 41.1348 40.9685 42.074 39.4698 41.2741C38.9067 40.9743 38.0261 39.8093 37.5139 38.6864C36.6312 36.753 36.5867 36.7214 36.6608 38.1144C36.7053 38.9207 37.0037 39.9127 37.3255 40.318C37.6472 40.7211 38.0219 41.6688 38.1552 42.4244L38.4029 43.7963L37.2387 42.7072C36.5973 42.1057 36.0745 41.2129 36.0745 40.7211C36.0745 40.2293 35.8734 39.8283 35.6299 39.8283C35.3844 39.8283 35.2807 39.3323 35.3971 38.7265L35.6109 37.6247L35.1198 38.7328C34.7832 39.4884 34.798 40.2124 35.1621 41.0102C35.5262 41.8038 35.5432 42.627 35.215 43.5747C34.743 44.9382 34.7134 44.9086 33.8963 42.1521C32.9543 38.9861 32.5563 38.5766 32.7088 40.93C32.7659 41.8038 32.4992 43.0703 32.114 43.7436L31.4175 44.9677L31.2545 43.5874C31.1656 42.8275 31.3053 41.597 31.5636 40.8541C31.934 39.7987 31.8875 39.5011 31.3561 39.5011C30.9794 39.5011 30.6724 39.8916 30.6724 40.3707C30.6724 41.3311 28.2572 44.3387 28.2339 43.4079C28.2021 42.2619 29.2881 40.0436 30.5814 38.6104C31.3075 37.8062 31.4408 37.5319 30.8778 38.0004C30.3168 38.4669 29.7262 38.7202 29.5675 38.5619C29.4087 38.4036 29.0488 38.7033 28.7694 39.2267C28.0476 40.5691 25.7636 42.0297 25.7636 41.1474C25.7636 40.4741 26.7077 39.3935 28.4625 38.0553C29.0044 37.6437 29.1695 37.4453 28.8308 37.6163C28.4942 37.7873 28.2169 37.6859 28.2169 37.3926C28.2169 37.1013 27.5777 37.3335 26.7923 37.9097C24.9571 39.2647 23.8881 38.9714 25.2704 37.4939C25.8821 36.8396 26.9236 36.3773 27.8698 36.3435C28.7356 36.3119 29.0573 36.1853 28.581 36.0607C28.1048 35.9383 27.8402 35.6323 27.9947 35.3853C28.1513 35.1299 27.7153 35.1468 26.9871 35.4233C25.2513 36.0797 22.2857 36.0797 23.3081 35.4212C23.7124 35.1595 24.7624 34.9442 25.6408 34.9378C26.5172 34.9336 27.2347 34.712 27.2347 34.4418C27.2347 34.1717 26.7246 33.9522 26.1023 33.9522C25.4778 33.9522 24.5401 33.6292 24.0151 33.2324C23.143 32.576 23.3039 32.519 25.9012 32.5633C29.252 32.6224 30.0014 32.2467 27.3745 31.8267C26.2759 31.6515 25.264 31.1239 24.8999 30.5371C24.0829 29.2285 24.8894 29.2285 27.0167 30.5413C28.0349 31.1682 28.7462 31.3497 28.943 31.0331C29.1145 30.7545 28.7144 30.2838 28.054 29.9841C26.8813 29.4501 25.4715 27.2255 25.9837 26.7147C26.1255 26.5733 27.0167 27.2783 27.965 28.2808C28.9155 29.2855 29.6902 29.9461 29.6902 29.7498C29.6902 29.5535 30.1432 29.8005 30.6936 30.2986C31.5742 31.0922 31.6567 31.1028 31.3773 30.3746C31.2016 29.9187 30.8862 29.5451 30.6767 29.5451C30.0882 29.5451 28.7885 27.3606 28.4498 25.8029L28.145 24.4056L29.4087 25.7797C30.103 26.5353 30.6724 27.5442 30.6724 28.0233C30.6724 28.5003 30.9857 28.8929 31.3667 28.8929C31.8959 28.8929 31.9531 28.6143 31.6123 27.7194C31.0386 26.2145 31.0323 23.6711 31.6017 23.6711C31.843 23.6711 32.2071 24.2769 32.4124 25.0177ZM21.729 24.6863C23.1091 25.1676 25.1455 27.388 24.6544 27.8756C24.176 28.3547 21.3459 26.93 20.6388 25.8535C19.4175 23.9961 19.4958 23.9096 21.729 24.6863ZM46.8764 24.5323C46.8764 25.2014 44.3977 27.5864 43.7055 27.5864C43.3329 27.5864 42.6302 27.7405 42.1412 27.9262C41.3982 28.2112 41.4363 28.0339 42.3888 26.8245C43.9637 24.8235 46.8764 23.3355 46.8764 24.5323ZM22.1905 30.0348L23.4415 31.0141H21.4644C20.2197 31.0141 19.0597 30.6574 18.3294 30.0517L17.1694 29.0892L19.0576 29.0723C20.2197 29.0618 21.4221 29.4311 22.1905 30.0348ZM48.3497 30.0348C47.5983 30.6215 46.3599 30.993 45.1576 30.993H43.1932L44.421 30.0348C45.1745 29.4501 46.4086 29.0786 47.6131 29.0786H49.5775L48.3497 30.0348ZM15.0844 30.6131L16.5894 31.6811L14.7499 32.3164C13.0523 32.9032 12.7771 32.8588 11.1472 31.755L9.38179 30.5582L10.5756 30.0833C12.4405 29.3404 13.4608 29.4607 15.0844 30.6131ZM55.1615 29.8512C57.1259 30.2437 57.0963 30.6891 55.0155 31.9703C53.502 32.9032 53.1739 32.9412 51.726 32.3523L50.1193 31.698L51.1989 30.6215C52.3589 29.4649 52.795 29.3805 55.1615 29.8512ZM62.9428 34.2772C63.4233 35.7146 59.92 36.5293 58.034 35.4212L56.1987 34.3405L58.0425 32.9813L59.8883 31.622L61.3341 32.7069C62.13 33.3042 62.8539 34.0113 62.9428 34.2772ZM8.59645 33.0657C10.11 34.1801 10.4613 34.9315 9.47491 34.9315C9.15951 34.9315 8.49485 35.2967 7.99953 35.7441C7.11682 36.5398 3.20077 35.4212 3.18172 34.368C3.15208 32.7196 6.90302 31.8162 8.59645 33.0657ZM21.2739 33.7664C22.1143 33.9353 22.6815 34.2645 22.5355 34.5009C22.1777 35.0771 16.4349 35.0561 16.4349 34.4777C16.4349 33.6504 18.8819 33.2894 21.2739 33.7664ZM49.2028 33.7707C49.8082 33.9311 50.1807 34.2582 50.0326 34.4967C49.6748 35.0771 43.9299 35.0582 43.9299 34.4777C43.9299 33.6546 47.1537 33.2219 49.2028 33.7707ZM14.8643 36.0818L16.4857 36.6665L14.9616 37.7915C13.7783 38.6632 13.0862 38.8405 11.8669 38.5788C9.44528 38.0616 9.36697 37.8548 11.1197 36.6179C13.0036 35.2903 12.7686 35.3241 14.8643 36.0818ZM55.079 36.4617C56.9862 37.6374 56.7364 38.2579 54.1984 38.6589C52.9029 38.8658 52.2594 38.678 51.3598 37.8337L50.1955 36.7425L51.3598 36.0987C52.9177 35.2376 53.1231 35.2566 55.079 36.4617ZM22.1905 38.3592C21.4221 38.9629 20.2197 39.3323 19.0576 39.3217L17.1694 39.3048L18.3294 38.3424C19.0597 37.7366 20.2197 37.3799 21.4644 37.3799H23.4415L22.1905 38.3592ZM48.3497 38.3592L49.5775 39.3154H47.6131C46.4086 39.3154 45.1745 38.946 44.421 38.3592L43.1932 37.401H45.1576C46.3599 37.401 47.5983 37.7725 48.3497 38.3592ZM10.4275 40.8646L11.543 41.2783L10.4275 42.9964C9.23359 44.8327 8.06089 45.1366 5.92082 44.1636C4.86666 43.6844 4.76506 43.4565 5.22441 42.5721C6.65324 39.8093 7.15702 39.6425 10.4275 40.8646ZM60.5318 41.2762C61.9183 43.1441 61.8866 43.6612 60.3477 44.2459C58.3579 44.9994 57.3609 44.8137 56.5184 43.5346C55.2716 41.635 55.3647 41.2171 57.1873 40.5396C59.4988 39.6826 59.321 39.6425 60.5318 41.2762ZM24.7645 40.6852C24.7306 41.464 22.853 43.2644 21.5702 43.752C19.8959 44.3852 19.6207 44.1425 20.4504 42.7536C21.2739 41.3733 24.8089 39.6763 24.7645 40.6852ZM43.7351 40.8266C45.0835 41.31 47.2172 43.5663 46.7579 44.0243C46.2732 44.5097 43.4493 43.0977 42.736 42.0107C41.5209 40.1639 41.6056 40.0647 43.7351 40.8266ZM17.9039 42.1521C17.8955 43.5789 15.5776 45.2759 13.8482 45.1261L12.015 44.9677L12.9888 43.3763C13.9096 41.8735 17.9124 40.8773 17.9039 42.1521ZM53.43 43.5346L54.8292 45.2126H52.85C51.0359 45.2126 48.8408 43.4966 48.8408 42.0761C48.8408 40.9701 52.1747 42.0276 53.43 43.5346ZM26.4833 44.3556C26.1023 46.1455 24.955 47.6609 23.9791 47.6609C23.1155 47.6609 23.958 45.3899 25.391 43.866C26.7564 42.4117 26.8855 42.4708 26.4833 44.3556ZM41.0955 43.8955C41.8469 44.5076 42.5857 45.7276 42.7741 46.6689L43.1107 48.349L41.6797 47.2304C40.3715 46.2088 38.6061 42.741 39.4147 42.7811C39.6031 42.7916 40.3588 43.2919 41.0955 43.8955ZM29.1081 48.7648L27.9714 50.3541L27.819 48.7606C27.7153 47.6905 28.0391 46.6415 28.7991 45.5777L29.9358 43.9884L30.0903 45.5841C30.194 46.6521 29.8702 47.7011 29.1081 48.7648ZM38.5194 48.1042C38.5299 49.74 38.5109 49.7547 37.5478 48.8851C36.864 48.2688 36.5677 47.3866 36.5762 45.9935L36.5867 43.9884L37.5478 45.2126C38.0748 45.8859 38.513 47.1882 38.5194 48.1042ZM33.9894 49.2524C33.4116 50.9241 33.2295 50.9304 32.6093 49.303C32.2642 48.3976 32.2918 47.4794 32.7003 46.2426L33.2867 44.4781L33.8688 46.1919C34.2646 47.3507 34.3027 48.3406 33.9894 49.2524ZM20.8209 48.0324C20.3552 49.3664 16.7842 51.5994 16.1428 50.9599C15.5289 50.3499 17.8786 47.4055 19.3794 46.9011C21.4856 46.1919 21.4686 46.1793 20.8209 48.0324ZM49.1604 47.7517C49.751 48.2097 50.5046 50.5716 50.168 50.9072C49.1647 51.9076 45.4032 48.5664 45.4032 46.6753C45.4032 46.2151 48.2164 47.0193 49.1604 47.7517ZM13.7529 49.7421C13.1348 51.8401 10.7429 52.9545 9.50666 51.7198C8.20907 50.428 10.0655 47.6609 12.231 47.6609H14.3647L13.7529 49.7421ZM56.6285 48.5179C57.8901 50.8755 57.5493 51.8147 55.3774 51.9709C53.1781 52.1313 52.7463 51.7409 52.0901 49.0075C51.6879 47.3232 55.7563 46.8842 56.6285 48.5179ZM24.4766 54.0858C22.6858 55.9516 22.3259 55.8651 22.3259 53.5708C22.3259 51.9857 22.6053 51.4285 23.922 50.3985L25.518 49.149L25.6726 50.9135C25.7954 52.3002 25.5392 52.9819 24.4766 54.0858ZM42.5561 50.2486C43.8558 51.3124 45.1026 55.4979 44.1161 55.4915C42.6407 55.4831 40.7377 53.0495 40.7081 51.1351C40.6721 48.8282 40.7653 48.7838 42.5561 50.2486ZM31.4027 53.0157C31.7097 54.413 30.7613 57.0386 29.7178 57.6824C28.5556 58.3979 28.1301 54.0542 29.2139 52.5366C30.4078 50.865 30.9561 50.9874 31.4027 53.0157ZM37.4335 52.6084C38.4432 54.1977 38.0537 58.3114 36.9572 57.6381C35.5389 56.7621 34.7557 54.4911 35.287 52.7962C35.9453 50.7003 36.2078 50.6771 37.4335 52.6084ZM19.8704 54.9575C19.8704 57.4017 18.7507 58.4317 16.0878 58.4317C14.1932 58.4317 15.5713 53.9022 17.6605 53.2627C18.7422 52.9313 19.6799 52.6358 19.7477 52.6084C19.8154 52.5809 19.8704 53.6362 19.8704 54.9575ZM51.2963 56.2746C51.2963 58.6364 51.0126 58.7947 48.4238 57.8935C46.9759 57.3911 46.8764 57.2054 46.8764 54.9871V52.6168L49.0863 53.3661C51.256 54.1048 51.2963 54.1555 51.2963 56.2746ZM26.6463 58.1003C27.4231 60.2426 27.3893 60.88 26.4981 60.88C26.0938 60.88 25.7636 61.0763 25.7636 61.3169C25.7636 62.0705 24.1421 62.4124 23.7103 61.7539C22.5694 60.0104 22.6815 58.8201 24.1019 57.6634C25.9266 56.1754 25.9499 56.1796 26.6463 58.1003ZM42.2766 57.4924C44.1521 58.6491 44.2198 58.9002 43.1826 60.9033C42.2893 62.6235 42.446 62.5981 40.3228 61.3486L38.6231 60.3503L39.3872 58.4106C40.2805 56.1458 40.1556 56.1859 42.2766 57.4924ZM34.8933 62.0768C33.3882 64.027 33.0559 64.0461 31.8091 62.2668L30.7338 60.7344L32.0272 59.0459L33.3184 57.3552L34.6626 58.9952L36.0067 60.6352L34.8933 62.0768Z" fill="#8C734B"/>
</svg>
