<svg width="76" height="78" viewBox="0 0 76 78" fill="none" xmlns="http://www.w3.org/2000/svg">
<path fill-rule="evenodd" clip-rule="evenodd" d="M35.3994 3.98301C33.7344 6.12701 32.5564 7.197 32.1754 6.91C31.8454 6.661 30.5464 5.65001 29.2884 4.66401C26.4944 2.47201 26.2154 2.623 24.7124 7.139C23.7484 10.035 23.3424 10.659 22.6144 10.359C21.5114 9.904 16.3904 8.481 15.8224 8.472C15.5964 8.469 15.4114 10.192 15.4114 12.301V16.137L12.5344 16.144C10.9524 16.149 9.12535 16.295 8.47435 16.47L7.29036 16.787L8.33736 20.565C8.91236 22.642 9.38435 24.441 9.38435 24.562C9.38435 24.683 8.45935 24.943 7.32935 25.139C1.79535 26.101 1.40036 26.818 4.17836 30.857C6.52636 34.27 6.57335 33.808 3.66235 35.899C0.483354 38.182 0.188354 39.061 2.10035 40.561C2.94235 41.221 4.20536 42.228 4.90836 42.799L6.18636 43.837L3.97036 47.11C1.42136 50.875 1.50035 51.06 6.31435 52.632C7.85235 53.134 9.15435 53.577 9.20935 53.616C9.26335 53.655 8.85436 55.325 8.29936 57.327L7.29036 60.966L8.47435 61.284C9.12535 61.459 10.9524 61.605 12.5344 61.609L15.4114 61.616V65.452C15.4114 67.562 15.5964 69.279 15.8224 69.268C16.0484 69.258 17.8294 68.907 19.7794 68.489C23.8184 67.623 23.9234 67.65 24.4294 69.663C25.8314 75.25 26.3894 75.432 30.9714 71.801C32.3474 70.712 33.1894 70.345 33.3374 70.77C33.4644 71.133 34.5744 72.694 35.8044 74.238L38.0404 77.046L39.3164 75.496C40.0184 74.643 41.1524 73.146 41.8374 72.168C43.0574 70.428 43.9044 69.897 43.9044 70.874C43.9044 71.347 48.8564 74.767 49.5394 74.767C49.7234 74.767 50.4154 73.28 51.0784 71.463C52.5574 67.404 52.3344 67.533 56.2744 68.473C58.0594 68.9 59.7054 69.257 59.9324 69.268C60.1584 69.279 60.3424 67.562 60.3424 65.452V61.616L63.2194 61.609C68.9014 61.594 69.2304 61.19 67.5404 56.297L66.5544 53.444L68.2414 53.073C70.3594 52.608 73.4934 51.133 73.4934 50.601C73.4934 49.884 70.7334 44.682 70.1674 44.332C69.5464 43.949 73.9414 39.756 75.0004 39.721C76.3074 39.678 75.6694 38.754 72.6964 36.382C70.8204 34.884 69.8834 33.783 70.1784 33.423C70.8594 32.592 73.4934 27.552 73.4934 27.081C73.4934 26.594 71.1174 25.647 68.6994 25.169C66.6274 24.76 66.6364 24.806 67.8414 20.47C68.9664 16.424 68.7164 16.158 63.7674 16.145L60.3424 16.137V12.301C60.3424 7.91101 60.3944 7.942 55.7464 9.541C53.4304 10.337 52.5614 10.444 52.3914 9.952C50.9784 5.87 49.7934 2.986 49.5294 2.986C48.8534 2.986 43.9044 6.41101 43.9044 6.87901C43.9044 7.84201 43.0294 7.346 42.1144 5.863C41.6034 5.034 40.4734 3.512 39.6044 2.48L38.0234 0.604004L35.3994 3.98301ZM39.8484 7.666L41.3284 9.605L39.6874 11.209L38.0474 12.813L36.5084 11.207L34.9694 9.6L36.2864 7.667C37.9144 5.276 38.0264 5.276 39.8484 7.666ZM29.9064 8.672C31.3134 9.881 31.1394 14.021 29.6844 13.925C27.8634 13.806 26.2824 11.213 26.8964 9.353C27.6684 7.013 27.9124 6.958 29.9064 8.672ZM49.1704 9.347C49.6244 10.434 49.9204 11.377 49.8274 11.442C47.0154 13.408 46.0044 14.029 45.8754 13.868C44.0734 11.626 44.0304 10.091 45.7294 8.751C47.9894 6.969 48.1914 7.004 49.1704 9.347ZM21.3574 12.355C23.2414 13.012 24.1074 17.781 22.3424 17.781C19.5214 17.781 18.1514 16.598 18.1514 14.166C18.1514 11.525 18.4664 11.347 21.3574 12.355ZM58.1514 14.193C58.1514 16.582 56.6714 17.755 53.6304 17.778C52.5114 17.786 53.2454 13.004 54.4524 12.422C57.2194 11.088 58.1514 11.534 58.1514 14.193ZM35.4504 14.568C36.2964 16.205 36.1204 19.091 35.1374 19.699C33.8944 20.467 32.3344 16.762 32.9454 14.493C33.6024 12.052 34.1574 12.069 35.4504 14.568ZM42.7734 18.045C41.4024 20.277 40.9824 20.285 40.2974 18.094C39.6854 16.139 39.9564 15.159 41.6524 13.2C43.1524 11.468 44.1544 15.797 42.7734 18.045ZM28.2224 16.617C29.4084 17.854 29.6944 18.617 29.5584 20.168L29.3844 22.143L27.6034 20.744C26.1334 19.59 25.8224 18.969 25.8224 17.193C25.8224 14.626 26.2234 14.53 28.2224 16.617ZM50.2484 17.37C49.9224 19.411 47.9024 22.062 46.6104 22.145C45.3924 22.223 46.5264 17.552 48.0144 16.362C50.3044 14.529 50.6754 14.697 50.2484 17.37ZM16.2554 21.479C16.9214 23.745 16.9054 23.808 15.6724 23.808C14.9754 23.808 14.0184 23.957 13.5464 24.138C12.6834 24.469 12.0334 23.356 11.2384 20.188C10.5164 17.314 15.4004 18.572 16.2554 21.479ZM64.8384 20.247C64.3304 23.692 61.3254 25.368 58.8644 23.578C58.8044 23.535 59.0224 22.447 59.3484 21.161L59.9424 18.823L62.4714 18.987C64.6454 19.128 64.9774 19.304 64.8384 20.247ZM21.6454 20.802C22.7374 21.258 23.6304 21.691 23.6304 21.764C23.6304 21.838 23.8644 22.714 24.1514 23.712L24.6714 25.527L22.9184 25.158C20.7484 24.701 20.6014 24.565 19.5424 22.027C18.5854 19.735 18.7964 19.611 21.6454 20.802ZM38.7564 25.5L38.0474 27.186L37.3614 25.53C36.8114 24.203 36.8114 23.459 37.3604 21.794L38.0464 19.716L38.7564 21.765C39.3364 23.441 39.3364 24.121 38.7564 25.5ZM57.0554 20.538C57.0554 22.519 55.4244 24.764 53.7414 25.101C51.5444 25.541 51.5114 25.51 52.0324 23.507C52.5504 21.519 57.0554 18.857 57.0554 20.538ZM34.5864 25.943L34.5894 27.804L33.2194 26.326C32.2594 25.289 31.8554 24.242 31.8694 22.821L31.8894 20.795L33.2364 22.438C34.0784 23.465 34.5854 24.78 34.5864 25.943ZM42.8434 26.354L41.7124 27.792V25.922C41.7124 24.893 42.1444 23.442 42.6714 22.697L43.6304 21.342L43.8024 23.129C43.9164 24.308 43.5894 25.405 42.8434 26.354ZM30.2134 26.151C30.2174 26.52 30.3794 27.438 30.5734 28.192L30.9254 29.562L29.6874 28.467C28.5634 27.473 26.9184 24.876 26.9184 24.095C26.9184 23.922 27.6584 24.163 28.5624 24.63C29.4664 25.098 30.2094 25.782 30.2134 26.151ZM48.5824 25.315C48.2474 26.668 45.8674 29.218 44.8924 29.268C43.2424 29.353 46.7834 24.402 48.7584 23.862C48.8664 23.832 48.7874 24.486 48.5824 25.315ZM12.3404 28.751C13.6694 30.76 13.7124 30.981 12.8234 31.261C12.2884 31.43 11.2674 31.802 10.5554 32.088C9.04536 32.695 8.07836 32.078 6.86836 29.739C6.42836 28.888 6.13636 28.188 6.21936 28.184C6.32936 28.178 9.48536 27.071 10.8184 26.572C10.8534 26.559 11.5384 27.539 12.3404 28.751ZM19.7574 28.139C21.3084 30.317 21.2244 30.471 18.5894 30.278C16.6534 30.136 16.1224 29.827 15.2514 28.329L14.2144 26.548H16.4194C18.2274 26.548 18.8284 26.834 19.7574 28.139ZM61.4214 26.959C61.3684 28.209 58.6134 30.384 57.0814 30.384C55.1394 30.384 55.0994 30.259 56.3514 28.139C57.2424 26.632 61.4764 25.646 61.4214 26.959ZM69.2794 28.142C70.2404 29.103 67.5424 32.672 66.1764 32.247C62.1264 30.986 62.1864 31.117 64.2764 28.095C65.3084 26.604 67.7644 26.627 69.2794 28.142ZM37.0774 28.603C37.3054 29.432 37.4374 30.788 37.3694 31.616C37.1724 34.035 37.7274 33.366 38.7334 29.973C39.6474 26.889 39.6784 26.855 40.2054 28.382C40.5724 29.445 40.5524 30.363 40.1444 31.259C39.6584 32.326 39.6984 32.575 40.3544 32.575C40.8004 32.575 41.1644 32.12 41.1644 31.564C41.1644 31.008 41.6584 30.107 42.2604 29.562C43.3284 28.595 43.3564 28.605 43.3564 29.929C43.3564 31.338 41.0914 33.963 40.4394 33.311C40.2354 33.107 40.0684 33.401 40.0684 33.963C40.0684 34.759 40.2154 34.84 40.7264 34.329C41.7604 33.294 42.3584 33.56 41.7124 34.767C41.3904 35.37 41.2534 35.863 41.4084 35.863C41.5634 35.863 42.1894 34.885 42.7994 33.69C43.4094 32.494 44.4004 31.253 45.0024 30.931C46.6344 30.057 46.3674 31.132 44.3954 33.378C42.4704 35.571 42.5094 35.654 44.9164 34.453C47.6284 33.1 49.0164 33.719 46.6444 35.223C45.5894 35.891 44.2954 36.332 43.7684 36.202C43.2414 36.072 42.6714 36.189 42.5024 36.462C42.3344 36.735 42.6104 36.959 43.1174 36.959C43.9144 36.959 43.9374 37.085 43.2864 37.892C42.5784 38.77 42.6134 38.77 43.8894 37.892C45.6794 36.659 50.2194 36.569 48.5944 37.798C48.0094 38.241 46.8524 38.603 46.0234 38.603C45.1954 38.603 44.3644 38.849 44.1784 39.151C43.9714 39.485 44.8014 39.699 46.3054 39.699C47.6614 39.699 48.9394 39.97 49.1444 40.302C49.3994 40.715 48.6764 40.865 46.8474 40.779C42.1484 40.557 40.1374 41.294 44.5044 41.638C46.5404 41.798 49.3334 44.097 47.4514 44.063C46.8564 44.052 45.7534 43.691 45.0004 43.26C42.7694 41.985 42.5894 42.318 44.3954 44.375C46.3854 46.641 46.6274 47.693 44.9534 46.797C44.3254 46.461 43.3434 45.158 42.7714 43.901C41.7864 41.737 41.7364 41.703 41.8204 43.26C41.8694 44.164 42.2024 45.274 42.5614 45.726C42.9204 46.178 43.3374 47.239 43.4884 48.084L43.7634 49.62L42.4644 48.4C41.7494 47.728 41.1644 46.729 41.1644 46.178C41.1644 45.628 40.9414 45.178 40.6684 45.178C40.3954 45.178 40.2784 44.623 40.4094 43.945L40.6474 42.712L40.0994 43.952C39.7254 44.799 39.7404 45.608 40.1474 46.502C40.5524 47.391 40.5714 48.311 40.2054 49.371C39.6784 50.898 39.6474 50.864 38.7334 47.781C37.6824 44.236 37.2394 43.778 37.4104 46.411C37.4734 47.39 37.1754 48.808 36.7464 49.562L35.9674 50.932L35.7864 49.386C35.6864 48.536 35.8424 47.159 36.1324 46.327C36.5444 45.146 36.4924 44.813 35.8994 44.813C35.4804 44.813 35.1374 45.251 35.1374 45.787C35.1374 46.862 32.4424 50.227 32.4154 49.186C32.3804 47.902 33.5914 45.421 35.0354 43.817C35.8444 42.917 35.9944 42.61 35.3664 43.133C34.7394 43.656 34.0814 43.94 33.9044 43.762C33.7274 43.585 33.3254 43.92 33.0124 44.506C32.2084 46.008 29.6584 47.643 29.6584 46.656C29.6584 45.903 30.7124 44.692 32.6714 43.194C33.2744 42.734 33.4594 42.513 33.0824 42.704C32.7054 42.895 32.3974 42.782 32.3974 42.454C32.3974 42.126 31.6824 42.387 30.8074 43.033C28.7584 44.548 27.5664 44.221 29.1074 42.567C29.7904 41.834 30.9544 41.317 32.0084 41.279C32.9754 41.244 33.3334 41.102 32.8024 40.963C32.2704 40.825 31.9764 40.484 32.1484 40.207C32.3244 39.921 31.8364 39.939 31.0234 40.248C29.0874 40.984 25.7784 40.983 26.9184 40.247C27.3704 39.954 28.5414 39.712 29.5214 39.707C30.5004 39.702 31.3014 39.452 31.3014 39.151C31.3014 38.849 30.7324 38.603 30.0364 38.603C29.3404 38.603 28.2924 38.241 27.7074 37.798C26.7344 37.062 26.9144 36.998 29.8134 37.049C33.5514 37.114 34.3874 36.695 31.4574 36.224C30.2304 36.027 29.1024 35.437 28.6944 34.781C27.7844 33.316 28.6824 33.317 31.0564 34.785C32.1924 35.487 32.9874 35.69 33.2074 35.335C33.3984 35.025 32.9524 34.497 32.2154 34.161C30.9054 33.565 29.3324 31.074 29.9044 30.503C30.0624 30.344 31.0574 31.134 32.1164 32.256C33.1754 33.379 34.0414 34.118 34.0414 33.899C34.0414 33.68 34.5454 33.957 35.1614 34.514C36.1424 35.402 36.2364 35.413 35.9244 34.599C35.7284 34.089 35.3764 33.671 35.1414 33.671C34.4854 33.671 33.0344 31.226 32.6564 29.482L32.3174 27.918L33.7274 29.455C34.5024 30.301 35.1374 31.431 35.1374 31.967C35.1374 32.502 35.4854 32.941 35.9114 32.941C36.5014 32.941 36.5664 32.629 36.1854 31.626C35.5454 29.943 35.5384 27.096 36.1734 27.096C36.4424 27.096 36.8494 27.774 37.0774 28.603ZM25.1564 28.233C26.6974 28.77 28.9694 31.255 28.4204 31.803C27.8864 32.338 24.7294 30.743 23.9404 29.54C22.5774 27.459 22.6644 27.364 25.1564 28.233ZM53.2194 28.06C53.2194 28.808 50.4544 31.479 49.6804 31.479C49.2654 31.479 48.4804 31.65 47.9354 31.859C47.1054 32.178 47.1494 31.98 48.2114 30.626C49.9694 28.385 53.2194 26.72 53.2194 28.06ZM25.6724 34.219L27.0664 35.315H24.8614C23.4724 35.315 22.1774 34.916 21.3624 34.237L20.0684 33.16L22.1744 33.142C23.4724 33.13 24.8134 33.543 25.6724 34.219ZM54.8634 34.219C54.0244 34.876 52.6444 35.291 51.3014 35.291H49.1104L50.4794 34.219C51.3194 33.563 52.6984 33.148 54.0414 33.148H56.2334L54.8634 34.219ZM17.7424 34.866L19.4204 36.061L17.3684 36.772C15.4734 37.428 15.1664 37.38 13.3474 36.144L11.3774 34.805L12.7094 34.273C14.7904 33.442 15.9304 33.576 17.7424 34.866ZM62.4664 34.014C64.6584 34.452 64.6244 34.95 62.3024 36.385C60.6144 37.428 60.2474 37.471 58.6324 36.812L56.8384 36.08L58.0424 34.876C59.3374 33.581 59.8254 33.486 62.4664 34.014ZM71.1494 38.967C71.6854 40.575 67.7764 41.488 65.6714 40.247L63.6234 39.038L65.6814 37.516L67.7404 35.995L69.3544 37.209C70.2414 37.877 71.0494 38.668 71.1494 38.967ZM10.5024 37.61C12.1894 38.857 12.5834 39.699 11.4824 39.699C11.1294 39.699 10.3884 40.108 9.83535 40.608C8.85035 41.499 4.47936 40.247 4.45836 39.068C4.42636 37.223 8.61235 36.213 10.5024 37.61ZM24.6494 38.395C25.5864 38.583 26.2184 38.953 26.0554 39.217C25.6564 39.862 19.2474 39.837 19.2474 39.191C19.2474 38.264 21.9804 37.862 24.6494 38.395ZM55.8164 38.399C56.4904 38.579 56.9074 38.946 56.7424 39.213C56.3424 39.861 49.9324 39.84 49.9324 39.191C49.9324 38.27 53.5284 37.786 55.8164 38.399ZM17.4954 40.986L19.3054 41.641L17.6034 42.899C16.2834 43.876 15.5104 44.073 14.1504 43.781C11.4494 43.202 11.3614 42.97 13.3174 41.587C15.4194 40.101 15.1574 40.139 17.4954 40.986ZM62.3734 41.412C64.5004 42.727 64.2224 43.421 61.3914 43.871C59.9444 44.101 59.2264 43.892 58.2224 42.947L56.9234 41.725L58.2224 41.005C59.9624 40.041 60.1904 40.063 62.3734 41.412ZM25.6724 43.534C24.8134 44.21 23.4724 44.623 22.1744 44.612L20.0684 44.594L21.3624 43.516C22.1774 42.837 23.4724 42.438 24.8614 42.438H27.0664L25.6724 43.534ZM54.8634 43.534L56.2334 44.606H54.0414C52.6984 44.606 51.3194 44.191 50.4794 43.534L49.1104 42.463H51.3014C52.6444 42.463 54.0244 42.878 54.8634 43.534ZM12.5454 46.338L13.7894 46.803L12.5454 48.724C11.2134 50.78 9.90436 51.121 7.51436 50.032C6.33836 49.496 6.22635 49.24 6.73735 48.251C8.33335 45.157 8.89535 44.972 12.5454 46.338ZM68.4594 46.8C70.0054 48.891 69.9694 49.47 68.2524 50.123C66.0334 50.967 64.9194 50.759 63.9804 49.327C62.5884 47.202 62.6924 46.734 64.7264 45.976C67.3054 45.015 67.1074 44.972 68.4594 46.8ZM28.5434 46.137C28.5054 47.009 26.4114 49.025 24.9794 49.57C23.1104 50.28 22.8044 50.008 23.7294 48.454C24.6494 46.909 28.5934 45.01 28.5434 46.137ZM49.7134 46.297C51.2184 46.838 53.6004 49.363 53.0884 49.876C52.5454 50.419 49.3944 48.837 48.5984 47.622C47.2434 45.555 47.3374 45.443 49.7134 46.297ZM20.8884 47.781C20.8774 49.376 18.2924 51.277 16.3624 51.109L14.3164 50.932L15.4034 49.151C16.4314 47.467 20.8974 46.352 20.8884 47.781ZM60.5334 49.327L62.0944 51.205H59.8864C57.8604 51.205 55.4114 49.285 55.4114 47.696C55.4114 46.456 59.1324 47.641 60.5334 49.327ZM30.4624 50.247C30.0364 52.249 28.7554 53.945 27.6684 53.945C26.7034 53.945 27.6444 51.404 29.2424 49.699C30.7664 48.071 30.9114 48.136 30.4624 50.247ZM46.7694 49.73C47.6074 50.416 48.4304 51.781 48.6414 52.835L49.0174 54.715L47.4194 53.463C45.9614 52.319 43.9904 48.439 44.8924 48.485C45.1024 48.496 45.9474 49.056 46.7694 49.73ZM33.3914 55.181L32.1234 56.959L31.9514 55.175C31.8364 53.978 32.1974 52.805 33.0474 51.613L34.3154 49.836L34.4874 51.62C34.6024 52.816 34.2414 53.989 33.3914 55.181ZM43.8924 54.441C43.9044 56.272 43.8844 56.288 42.8084 55.315C42.0474 54.626 41.7164 53.639 41.7254 52.079L41.7374 49.836L42.8084 51.205C43.3984 51.959 43.8854 53.415 43.8924 54.441ZM38.8374 55.726C38.1924 57.597 37.9914 57.604 37.2994 55.784C36.9134 54.77 36.9444 53.742 37.4004 52.359L38.0534 50.384L38.7044 52.301C39.1454 53.599 39.1884 54.707 38.8374 55.726ZM24.1424 54.36C23.6224 55.854 19.6384 58.354 18.9214 57.637C18.2384 56.954 20.8584 53.66 22.5344 53.094C24.8844 52.301 24.8654 52.286 24.1424 54.36ZM55.7684 54.047C56.4274 54.56 57.2684 57.203 56.8924 57.579C55.7724 58.698 51.5754 54.959 51.5754 52.842C51.5754 52.326 54.7154 53.228 55.7684 54.047ZM16.2554 56.274C15.5654 58.622 12.8974 59.87 11.5174 58.489C10.0694 57.042 12.1414 53.945 14.5574 53.945H16.9394L16.2554 56.274ZM64.1034 54.904C65.5104 57.543 65.1304 58.593 62.7064 58.77C60.2524 58.948 59.7694 58.512 59.0384 55.452C58.5884 53.568 63.1294 53.077 64.1034 54.904ZM28.2224 61.137C26.2234 63.223 25.8224 63.127 25.8224 60.56C25.8224 58.785 26.1334 58.163 27.6034 57.009L29.3844 55.61L29.5584 57.586C29.6944 59.137 29.4084 59.9 28.2224 61.137ZM48.3974 56.842C49.8494 58.033 51.2394 62.716 50.1394 62.71C48.4934 62.7 46.3684 59.975 46.3364 57.833C46.2964 55.252 46.3994 55.203 48.3974 56.842ZM35.9524 59.939C36.2954 61.501 35.2364 64.44 34.0714 65.16C32.7744 65.961 32.3004 61.1 33.5094 59.402C34.8414 57.532 35.4524 57.667 35.9524 59.939ZM42.6824 59.482C43.8084 61.26 43.3734 65.866 42.1514 65.111C40.5674 64.132 39.6924 61.59 40.2874 59.692C41.0204 57.347 41.3144 57.322 42.6824 59.482ZM23.0824 62.111C23.0824 64.848 21.8324 66 18.8614 66C16.7474 66 18.2854 60.931 20.6164 60.214C21.8224 59.843 22.8704 59.514 22.9454 59.482C23.0214 59.451 23.0824 60.633 23.0824 62.111ZM58.1514 63.586C58.1514 66.228 57.8364 66.406 54.9454 65.398C53.3304 64.835 53.2194 64.627 53.2194 62.144V59.491L55.6854 60.331C58.1074 61.157 58.1514 61.214 58.1514 63.586ZM30.6434 65.628C31.5114 68.027 31.4734 68.74 30.4794 68.74C30.0274 68.74 29.6584 68.96 29.6584 69.229C29.6584 70.071 27.8504 70.456 27.3684 69.717C26.0934 67.767 26.2204 66.435 27.8034 65.14C29.8404 63.475 29.8664 63.479 30.6434 65.628ZM48.0864 64.949C50.1804 66.243 50.2554 66.525 49.0964 68.767C48.1014 70.69 48.2764 70.663 45.9064 69.265L44.0104 68.146L44.8624 65.977C45.8584 63.442 45.7204 63.486 48.0864 64.949ZM39.8474 70.08C38.1674 72.262 37.7974 72.284 36.4044 70.292L35.2054 68.577L36.6484 66.686L38.0904 64.795L39.5904 66.63L41.0904 68.466L39.8474 70.08Z" fill="#D7BE69"/>
</svg>
