<?xml version="1.0" encoding="utf-8"?>
<!-- Generator: Adobe Illustrator 19.2.1, SVG Export Plug-In . SVG Version: 6.00 Build 0)  -->
<svg version="1.1" id="layer" xmlns="http://www.w3.org/2000/svg" xmlns:xlink="http://www.w3.org/1999/xlink" x="0px" y="0px"
	 viewBox="0 0 652 652" style="enable-background:new 0 0 652 652;" xml:space="preserve">
<style type="text/css">
	.st0{fill:#8B734B;}
</style>
<path class="st0" d="M501.2,132.6l-32.9-17.9l16.4-9L501.2,132.6z M510.9,91.4v35.9l-16.4-26.8L510.9,91.4z M499.6,139.4l18.3-10
	V71.7l-71.2,38.9L499.6,139.4z"/>
<path class="st0" d="M455.6,182v-17.9h32.8L455.6,182z M455.6,135.5l32.8,17.9h-32.8V135.5z M494,148.7l-52.9-28.9v77.8l52.9-28.9
	V148.7z"/>
<path class="st0" d="M562.5,211.8l-16.4-26.9l32.7,17.9L562.5,211.8z M536.3,226.1v-35.9l16.4,26.9L536.3,226.1z M529.2,188v57.8
	l71.2-39L547.5,178L529.2,188z"/>
<path class="st0" d="M591.5,153.4h-32.8l32.8-17.9V153.4z M591.5,182l-32.9-17.9h32.9V182z M553.2,148.7v20l52.9,28.9v-77.8
	L553.2,148.7z"/>
<path class="st0" d="M562.4,105.7l16.4,9L546,132.6L562.4,105.7z M536.2,91.4l16.4,9l-16.4,26.9V91.4z M600.4,110.6l-71.2-39v57.8
	l18.4,10L600.4,110.6z"/>
<path class="st0" d="M484.7,211.8l-16.4-9l32.8-17.9L484.7,211.8z M510.9,226.1l-16.4-8.9l16.4-26.9V226.1z M446.8,206.9l71.2,38.9
	V188l-18.3-10L446.8,206.9z"/>
<path class="st0" d="M126.6,404.4c0,27.8,0,51.7-1.6,64.5c-1,8.7-2.9,15.4-9.4,16.6c-2.9,0.6-6.8,1.2-11.6,1.2
	c-3.9,0-5.2,0.9-5.2,2.4c0,2.1,2.3,3.1,6.4,3.1c12.9,0,33.3-0.9,40.8-0.9c9,0,29.4,0.9,50.7,0.9c3.5,0,6.1-1,6.1-3.1
	c0-1.5-1.6-2.4-5.2-2.4c-4.9,0-12-0.6-16.5-1.2c-9.7-1.2-11.6-7.9-12.6-16.4c-1.6-13-1.6-36.9-1.6-64.7v-124l40.7,0.9
	c28.8,0.6,37.5,9.1,38.1,16.9l0.3,3.3c0.3,4.6,1,6.1,3.6,6.1c1.9,0,2.6-1.8,2.9-4.8c0-7.8,1-28.8,1-35.1c0-4.5-0.4-6.4-2.6-6.4
	c-2.6,0-10.4,3.1-31,3.1H92c-10.7,0-22.9-0.6-32.3-1.5c-8-0.6-11.3-3.7-13.9-3.7c-1.9,0-2.9,1.8-3.9,5.8c-0.7,2.4-6.8,30-6.8,34.8
	c0,3.3,0.7,4.8,2.9,4.8l3.6-3.6c0.7-2.4,2.3-6,5.5-10.6c4.9-6.7,12.6-8.2,31.4-8.8l48.1-1.2V404.4z"/>
<path class="st0" d="M307.3,398.1L306,396l29-74.4l1.9-2.7l1.6,2.7l28.4,74.7l-1.6,1.8H307.3z M371.3,413.3l3.1,2.1l25.2,64.2
	c1.6,3.6-0.6,6.4-2.8,6.9c-3.2,0.3-4.4,0.9-4.4,2.7c0,2.1,3.8,2.1,9.5,2.5c25.2,0.6,48.3,0.6,59.6,0.6c11.7,0,14.5-0.6,14.5-3.1
	l-4.1-2.4c-3.8,0-8.5-0.3-13.2-1.2c-6.6-1.5-15.8-5.7-27.8-33c-20.2-45.9-70.6-169.3-78.2-186c-3.1-6.9-5-9.7-7.9-9.7
	c-3.2,0-5,3.3-8.8,12.1l-79.2,189.9c-6.4,15.2-12.3,25.4-26.9,27.2c-2.5,0.3-6.9,0.6-9.8,0.6l-3.8,2.4c0,2.5,1.9,3.1,6,3.1
	c16.5,0,33.8-0.9,37.3-0.9c9.7,0,23.3,0.9,33.4,0.9c3.5,0,5.3-0.6,5.3-3.1c0-1.8-1-2.4-4.7-2.4H289c-9.8,0-12.6-3.9-12.6-9.4
	c0-3.6,1.5-10.9,4.7-18.5l17-43.2l2.8-2.4H371.3z"/>
<path class="st0" d="M508.1,439.4c0,59.3,0.3,89.6-23.2,112.9c-6.2,6.1-10.8,9.4-14.9,11.5c-5.2,2.7-6.7,3.9-6.7,5.4l2.4,2.4
	l6.2-1.8c6.5-3,11.5-5.5,15.5-7.9c29.7-17.9,46-38.7,52.5-57.2c6.2-17,7.4-36.4,7.4-53.6c0-15.1-1-29.6-1-42.7v-55.9
	c0-46,0-54.4,0.6-64.1c0.6-10.6,3.1-15.8,11.4-17.2c3.7-0.7,5.6-1,8.9-1c3.7,0,5.6-0.6,5.6-2.7s-2.2-2.7-6.5-2.7
	c-12,0-31.5,0.9-38.9,0.9c-8,0-27.5-0.9-43.9-0.9c-4.6,0-6.8,0.6-6.8,2.7s1.8,2.7,5.3,2.7c4.3,0,9.6,0.3,12,1
	c10.2,2.1,12.7,6.9,13.3,17.2c0.6,9.7,0.6,18.1,0.6,64.1V439.4z"/>
<path class="st0" d="M501.2,132.6l-32.9-17.9l16.4-9L501.2,132.6z M510.9,91.4v35.9l-16.4-26.8L510.9,91.4z M499.6,139.4l18.3-10
	V71.7l-71.2,38.9L499.6,139.4z"/>
<path class="st0" d="M455.6,182v-17.9h32.8L455.6,182z M455.6,135.5l32.8,17.9h-32.8V135.5z M494,148.7l-52.9-28.9v77.8l52.9-28.9
	V148.7z"/>
<path class="st0" d="M562.5,211.8l-16.4-26.9l32.7,17.9L562.5,211.8z M536.3,226.1v-35.9l16.4,26.9L536.3,226.1z M529.2,188v57.8
	l71.2-39L547.5,178L529.2,188z"/>
<path class="st0" d="M591.5,153.4h-32.8l32.8-17.9V153.4z M591.5,182l-32.9-17.9h32.9V182z M553.2,148.7v20l52.9,28.9v-77.8
	L553.2,148.7z"/>
<path class="st0" d="M562.4,105.7l16.4,9L546,132.6L562.4,105.7z M536.2,91.4l16.4,9l-16.4,26.9V91.4z M600.4,110.6l-71.2-39v57.8
	l18.4,10L600.4,110.6z"/>
<path class="st0" d="M484.7,211.8l-16.4-9l32.8-17.9L484.7,211.8z M510.9,226.1l-16.4-8.9l16.4-26.9V226.1z M446.8,206.9l71.2,38.9
	V188l-18.3-10L446.8,206.9z"/>
<path class="st0" d="M126.6,404.4c0,27.8,0,51.7-1.6,64.5c-1,8.7-2.9,15.4-9.4,16.6c-2.9,0.6-6.8,1.2-11.6,1.2
	c-3.9,0-5.2,0.9-5.2,2.4c0,2.1,2.3,3.1,6.4,3.1c12.9,0,33.3-0.9,40.8-0.9c9,0,29.4,0.9,50.7,0.9c3.5,0,6.1-1,6.1-3.1
	c0-1.5-1.6-2.4-5.2-2.4c-4.9,0-12-0.6-16.5-1.2c-9.7-1.2-11.6-7.9-12.6-16.4c-1.6-13-1.6-36.9-1.6-64.7v-124l40.7,0.9
	c28.8,0.6,37.5,9.1,38.1,16.9l0.3,3.3c0.3,4.6,1,6.1,3.6,6.1c1.9,0,2.6-1.8,2.9-4.8c0-7.8,1-28.8,1-35.1c0-4.5-0.4-6.4-2.6-6.4
	c-2.6,0-10.4,3.1-31,3.1H92c-10.7,0-22.9-0.6-32.3-1.5c-8-0.6-11.3-3.7-13.9-3.7c-1.9,0-2.9,1.8-3.9,5.8c-0.7,2.4-6.8,30-6.8,34.8
	c0,3.3,0.7,4.8,2.9,4.8l3.6-3.6c0.7-2.4,2.3-6,5.5-10.6c4.9-6.7,12.6-8.2,31.4-8.8l48.1-1.2V404.4z"/>
<path class="st0" d="M307.3,398.1L306,396l29-74.4l1.9-2.7l1.6,2.7l28.4,74.7l-1.6,1.8H307.3z M371.3,413.3l3.1,2.1l25.2,64.2
	c1.6,3.6-0.6,6.4-2.8,6.9c-3.2,0.3-4.4,0.9-4.4,2.7c0,2.1,3.8,2.1,9.5,2.5c25.2,0.6,48.3,0.6,59.6,0.6c11.7,0,14.5-0.6,14.5-3.1
	l-4.1-2.4c-3.8,0-8.5-0.3-13.2-1.2c-6.6-1.5-15.8-5.7-27.8-33c-20.2-45.9-70.6-169.3-78.2-186c-3.1-6.9-5-9.7-7.9-9.7
	c-3.2,0-5,3.3-8.8,12.1l-79.2,189.9c-6.4,15.2-12.3,25.4-26.9,27.2c-2.5,0.3-6.9,0.6-9.8,0.6l-3.8,2.4c0,2.5,1.9,3.1,6,3.1
	c16.5,0,33.8-0.9,37.3-0.9c9.7,0,23.3,0.9,33.4,0.9c3.5,0,5.3-0.6,5.3-3.1c0-1.8-1-2.4-4.7-2.4H289c-9.8,0-12.6-3.9-12.6-9.4
	c0-3.6,1.5-10.9,4.7-18.5l17-43.2l2.8-2.4H371.3z"/>
<path class="st0" d="M508.1,439.4c0,59.3,0.3,89.6-23.2,112.9c-6.2,6.1-10.8,9.4-14.9,11.5c-5.2,2.7-6.7,3.9-6.7,5.4l2.4,2.4
	l6.2-1.8c6.5-3,11.5-5.5,15.5-7.9c29.7-17.9,46-38.7,52.5-57.2c6.2-17,7.4-36.4,7.4-53.6c0-15.1-1-29.6-1-42.7v-55.9
	c0-46,0-54.4,0.6-64.1c0.6-10.6,3.1-15.8,11.4-17.2c3.7-0.7,5.6-1,8.9-1c3.7,0,5.6-0.6,5.6-2.7s-2.2-2.7-6.5-2.7
	c-12,0-31.5,0.9-38.9,0.9c-8,0-27.5-0.9-43.9-0.9c-4.6,0-6.8,0.6-6.8,2.7s1.8,2.7,5.3,2.7c4.3,0,9.6,0.3,12,1
	c10.2,2.1,12.7,6.9,13.3,17.2c0.6,9.7,0.6,18.1,0.6,64.1V439.4z"/>
</svg>
