<svg id="svg" version="1.1" xmlns="http://www.w3.org/2000/svg" xmlns:xlink="http://www.w3.org/1999/xlink" width="400" height="187.39726027397262" viewBox="0, 0, 400,187.39726027397262"><g id="svgg"><path id="path0" d="M70.399 57.983 C 68.734 60.127,67.556 61.197,67.175 60.910 C 66.845 60.661,65.546 59.650,64.288 58.664 C 61.494 56.472,61.215 56.623,59.712 61.139 C 58.748 64.035,58.342 64.659,57.614 64.359 C 56.511 63.904,51.390 62.481,50.822 62.472 C 50.596 62.469,50.411 64.192,50.411 66.301 L 50.411 70.137 47.534 70.144 C 45.952 70.149,44.125 70.295,43.474 70.470 L 42.290 70.787 43.337 74.565 C 43.912 76.642,44.384 78.441,44.384 78.562 C 44.384 78.683,43.459 78.943,42.329 79.139 C 36.795 80.101,36.400 80.818,39.178 84.857 C 41.526 88.270,41.573 87.808,38.662 89.899 C 35.483 92.182,35.188 93.061,37.100 94.561 C 37.942 95.221,39.205 96.228,39.908 96.799 L 41.186 97.837 38.970 101.110 C 36.421 104.875,36.500 105.060,41.314 106.632 C 42.852 107.134,44.154 107.577,44.209 107.616 C 44.263 107.655,43.854 109.325,43.299 111.327 L 42.290 114.966 43.474 115.284 C 44.125 115.459,45.952 115.605,47.534 115.609 L 50.411 115.616 50.411 119.452 C 50.411 121.562,50.596 123.279,50.822 123.268 C 51.048 123.258,52.829 122.907,54.779 122.489 C 58.818 121.623,58.923 121.650,59.429 123.663 C 60.831 129.250,61.389 129.432,65.971 125.801 C 67.347 124.712,68.189 124.345,68.337 124.770 C 68.464 125.133,69.574 126.694,70.804 128.238 L 73.040 131.046 74.316 129.496 C 75.018 128.643,76.152 127.146,76.837 126.168 C 78.057 124.428,78.904 123.897,78.904 124.874 C 78.904 125.347,83.856 128.767,84.539 128.767 C 84.723 128.767,85.415 127.280,86.078 125.463 C 87.557 121.404,87.334 121.533,91.274 122.473 C 93.059 122.900,94.705 123.257,94.932 123.268 C 95.158 123.279,95.342 121.562,95.342 119.452 L 95.342 115.616 98.219 115.609 C 103.901 115.594,104.230 115.190,102.540 110.297 L 101.554 107.444 103.241 107.073 C 105.359 106.608,108.493 105.133,108.493 104.601 C 108.493 103.884,105.733 98.682,105.167 98.332 C 104.546 97.949,108.941 93.756,110.000 93.721 C 111.307 93.678,110.669 92.754,107.696 90.382 C 105.820 88.884,104.883 87.783,105.178 87.423 C 105.859 86.592,108.493 81.552,108.493 81.081 C 108.493 80.594,106.117 79.647,103.699 79.169 C 101.627 78.760,101.636 78.806,102.841 74.470 C 103.966 70.424,103.716 70.158,98.767 70.145 L 95.342 70.137 95.342 66.301 C 95.342 61.911,95.394 61.942,90.746 63.541 C 88.430 64.337,87.561 64.444,87.391 63.952 C 85.978 59.870,84.793 56.986,84.529 56.986 C 83.853 56.986,78.904 60.411,78.904 60.879 C 78.904 61.842,78.029 61.346,77.114 59.863 C 76.603 59.034,75.473 57.512,74.604 56.480 L 73.023 54.604 70.399 57.983 M122.740 92.877 C 122.740 117.900,122.928 130.959,123.288 130.959 C 123.648 130.959,123.836 117.900,123.836 92.877 C 123.836 67.854,123.648 54.795,123.288 54.795 C 122.928 54.795,122.740 67.854,122.740 92.877 M161.644 55.842 C 144.365 60.607,135.939 76.958,143.917 90.243 C 144.968 91.993,146.043 93.502,146.305 93.596 C 146.567 93.690,147.845 94.577,149.144 95.567 C 158.555 102.733,173.507 97.058,174.305 86.018 C 174.539 82.783,174.280 80.803,173.478 79.706 C 172.798 78.776,172.742 79.072,172.998 82.262 C 173.419 87.504,170.637 93.699,167.861 93.699 C 167.425 93.699,166.288 94.103,165.333 94.596 C 154.737 100.075,139.816 88.261,142.456 76.482 C 145.683 62.084,158.797 56.545,182.055 59.758 L 186.849 60.420 186.849 94.246 C 186.849 127.637,186.835 128.090,185.714 129.515 L 184.578 130.959 189.589 130.959 L 194.600 130.959 193.464 129.515 C 192.344 128.090,192.329 127.631,192.329 94.710 L 192.329 61.349 193.562 61.644 C 212.022 66.056,230.444 66.597,236.301 62.899 C 239.231 61.049,239.759 60.352,237.246 61.651 C 232.326 64.196,221.559 63.890,208.219 60.828 C 183.059 55.054,169.694 53.623,161.644 55.842 M74.848 61.666 L 76.328 63.605 74.687 65.209 L 73.047 66.813 71.508 65.207 L 69.969 63.600 71.286 61.667 C 72.914 59.276,73.026 59.276,74.848 61.666 M64.906 62.672 C 66.313 63.881,66.139 68.021,64.684 67.925 C 62.863 67.806,61.282 65.213,61.896 63.353 C 62.668 61.013,62.912 60.958,64.906 62.672 M84.170 63.347 C 84.624 64.434,84.920 65.377,84.827 65.442 C 82.015 67.408,81.004 68.029,80.875 67.868 C 79.073 65.626,79.030 64.091,80.729 62.751 C 82.989 60.969,83.191 61.004,84.170 63.347 M56.357 66.355 C 58.241 67.012,59.107 71.781,57.342 71.781 C 54.521 71.781,53.151 70.598,53.151 68.166 C 53.151 65.525,53.466 65.347,56.357 66.355 M93.151 68.193 C 93.151 70.582,91.671 71.755,88.630 71.778 C 87.511 71.786,88.245 67.004,89.452 66.422 C 92.219 65.088,93.151 65.534,93.151 68.193 M70.450 68.568 C 71.296 70.205,71.120 73.091,70.137 73.699 C 68.894 74.467,67.334 70.762,67.945 68.493 C 68.602 66.052,69.157 66.069,70.450 68.568 M77.773 72.045 C 76.402 74.277,75.982 74.285,75.297 72.094 C 74.685 70.139,74.956 69.159,76.652 67.200 C 78.152 65.468,79.154 69.797,77.773 72.045 M63.222 70.617 C 64.408 71.854,64.694 72.617,64.558 74.168 L 64.384 76.143 62.603 74.744 C 61.133 73.590,60.822 72.969,60.822 71.193 C 60.822 68.626,61.223 68.530,63.222 70.617 M85.248 71.370 C 84.922 73.411,82.902 76.062,81.610 76.145 C 80.392 76.223,81.526 71.552,83.014 70.362 C 85.304 68.529,85.675 68.697,85.248 71.370 M51.255 75.479 C 51.921 77.745,51.905 77.808,50.672 77.808 C 49.975 77.808,49.018 77.957,48.546 78.138 C 47.683 78.469,47.033 77.356,46.238 74.188 C 45.516 71.314,50.400 72.572,51.255 75.479 M99.838 74.247 C 99.330 77.692,96.325 79.368,93.864 77.578 C 93.804 77.535,94.022 76.447,94.348 75.161 L 94.942 72.823 97.471 72.987 C 99.645 73.128,99.977 73.304,99.838 74.247 M223.319 75.342 C 222.804 76.548,222.005 78.633,221.542 79.976 C 221.080 81.319,218.786 86.640,216.445 91.800 C 214.104 96.960,212.032 101.674,211.841 102.276 C 211.577 103.107,210.692 103.520,208.167 103.989 C 206.337 104.330,204.099 105.077,203.195 105.649 L 201.550 106.691 205.707 106.424 C 210.348 106.126,210.282 106.072,208.767 108.898 C 208.164 110.023,207.671 111.270,207.671 111.671 C 207.671 113.033,205.323 118.074,203.729 120.137 L 202.140 122.192 204.651 122.192 C 207.016 122.192,207.127 122.126,206.558 121.063 C 205.549 119.179,210.123 106.849,211.830 106.849 C 212.239 106.849,215.211 107.742,218.436 108.832 C 224.644 110.931,227.456 111.079,230.966 109.491 C 232.504 108.795,232.406 108.755,228.475 108.457 C 225.749 108.250,223.363 107.672,221.325 106.725 C 219.643 105.944,217.177 104.994,215.846 104.615 C 212.404 103.634,212.418 103.873,215.430 97.260 C 218.210 91.159,221.021 84.470,221.649 82.466 C 221.904 81.654,222.672 83.004,224.612 87.671 C 226.053 91.137,228.775 97.548,230.661 101.918 C 235.766 113.746,237.355 118.583,236.701 120.303 C 236.406 121.080,236.164 121.822,236.164 121.953 C 236.164 122.085,238.430 122.192,241.198 122.192 L 246.232 122.192 244.821 120.685 C 243.438 119.207,238.856 109.236,236.575 102.740 C 235.461 99.566,229.846 85.936,226.868 79.178 C 226.072 77.370,225.158 75.274,224.838 74.521 C 224.256 73.152,224.255 73.152,223.319 75.342 M56.645 74.802 C 57.737 75.258,58.630 75.691,58.630 75.764 C 58.630 75.838,58.864 76.714,59.151 77.712 L 59.671 79.527 57.918 79.158 C 55.748 78.701,55.601 78.565,54.542 76.027 C 53.585 73.735,53.796 73.611,56.645 74.802 M73.756 79.500 L 73.047 81.186 72.361 79.530 C 71.811 78.203,71.811 77.459,72.360 75.794 L 73.046 73.716 73.756 75.765 C 74.336 77.441,74.336 78.121,73.756 79.500 M92.055 74.538 C 92.055 76.519,90.424 78.764,88.741 79.101 C 86.544 79.541,86.511 79.510,87.032 77.507 C 87.550 75.519,92.055 72.857,92.055 74.538 M269.712 74.772 C 249.811 79.295,244.811 106.926,261.757 118.732 C 268.561 123.472,280.752 123.849,290.548 119.624 C 292.488 118.787,292.603 118.600,292.603 116.264 L 292.603 113.790 290.508 116.059 C 285.535 121.446,275.650 123.301,268.856 120.122 C 254.865 113.575,254.358 84.043,268.120 77.268 C 275.443 73.663,285.146 75.321,290.846 81.151 L 292.603 82.948 292.603 80.632 C 292.603 76.195,278.892 72.685,269.712 74.772 M306.262 75.964 C 307.301 77.286,307.397 78.137,307.397 86.036 L 307.397 94.663 296.917 96.712 C 287.504 98.552,285.772 98.737,279.915 98.528 C 273.055 98.283,272.450 98.812,278.593 99.682 C 282.459 100.229,296.303 99.615,302.192 98.636 C 307.932 97.681,307.398 96.655,307.394 108.630 C 307.391 116.721,307.207 119.529,306.604 120.685 L 305.818 122.192 310.201 122.192 L 314.583 122.192 313.730 120.974 C 313.022 119.963,312.877 117.745,312.877 107.915 L 312.877 96.073 318.493 94.881 C 321.582 94.225,325.959 93.665,328.219 93.638 C 332.079 93.592,332.196 93.556,330.137 93.050 C 328.066 92.540,320.750 92.768,315.334 93.511 L 312.877 93.848 312.877 85.452 C 312.877 77.587,312.952 76.977,314.068 75.789 L 315.260 74.521 310.193 74.521 L 305.126 74.521 306.262 75.964 M334.207 75.964 C 335.909 78.128,335.979 95.174,334.283 94.266 C 333.700 93.954,333.022 93.709,332.776 93.721 C 332.530 93.733,333.007 94.110,333.836 94.560 L 335.342 95.377 335.342 107.567 C 335.342 117.712,335.199 119.960,334.489 120.974 L 333.636 122.192 338.082 122.192 L 342.528 122.192 341.675 120.974 C 340.113 118.744,340.422 77.483,342.013 75.789 L 343.205 74.521 338.138 74.521 L 333.071 74.521 334.207 75.964 M350.684 76.567 C 352.155 79.313,352.393 117.444,350.956 120.200 C 350.505 121.063,350.137 121.864,350.137 121.980 C 350.137 122.097,352.124 122.192,354.552 122.192 L 358.966 122.192 358.113 120.974 C 356.599 118.812,356.856 77.922,358.396 75.964 L 359.532 74.521 354.559 74.521 L 349.587 74.521 350.684 76.567 M69.586 79.943 L 69.589 81.804 68.219 80.326 C 67.259 79.289,66.855 78.242,66.869 76.821 L 66.889 74.795 68.236 76.438 C 69.078 77.465,69.585 78.780,69.586 79.943 M77.843 80.354 L 76.712 81.792 76.712 79.922 C 76.712 78.893,77.144 77.442,77.671 76.697 L 78.630 75.342 78.802 77.129 C 78.916 78.308,78.589 79.405,77.843 80.354 M65.213 80.151 C 65.217 80.520,65.379 81.438,65.573 82.192 L 65.925 83.562 64.687 82.467 C 63.563 81.473,61.918 78.876,61.918 78.095 C 61.918 77.922,62.658 78.163,63.562 78.630 C 64.466 79.098,65.209 79.782,65.213 80.151 M83.582 79.315 C 83.247 80.668,80.867 83.218,79.892 83.268 C 78.242 83.353,81.783 78.402,83.758 77.862 C 83.866 77.832,83.787 78.486,83.582 79.315 M47.340 82.751 C 48.669 84.760,48.712 84.981,47.823 85.261 C 47.288 85.430,46.267 85.802,45.555 86.088 C 44.045 86.695,43.078 86.078,41.868 83.739 C 41.428 82.888,41.136 82.188,41.219 82.184 C 41.329 82.178,44.485 81.071,45.818 80.572 C 45.853 80.559,46.538 81.539,47.340 82.751 M54.757 82.139 C 56.308 84.317,56.224 84.471,53.589 84.278 C 51.653 84.136,51.122 83.827,50.251 82.329 L 49.214 80.548 51.419 80.548 C 53.227 80.548,53.828 80.834,54.757 82.139 M96.421 80.959 C 96.368 82.209,93.613 84.384,92.081 84.384 C 90.139 84.384,90.099 84.259,91.351 82.139 C 92.242 80.632,96.476 79.646,96.421 80.959 M104.279 82.142 C 105.240 83.103,102.542 86.672,101.176 86.247 C 97.126 84.986,97.186 85.117,99.276 82.095 C 100.308 80.604,102.764 80.627,104.279 82.142 M72.077 82.603 C 72.305 83.432,72.437 84.788,72.369 85.616 C 72.172 88.035,72.727 87.366,73.733 83.973 C 74.647 80.889,74.678 80.855,75.205 82.382 C 75.572 83.445,75.552 84.363,75.144 85.259 C 74.658 86.326,74.698 86.575,75.354 86.575 C 75.800 86.575,76.164 86.120,76.164 85.564 C 76.164 85.008,76.658 84.107,77.260 83.562 C 78.328 82.595,78.356 82.605,78.356 83.929 C 78.356 85.338,76.091 87.963,75.439 87.311 C 75.235 87.107,75.068 87.401,75.068 87.963 C 75.068 88.759,75.215 88.840,75.726 88.329 C 76.760 87.294,77.358 87.560,76.712 88.767 C 76.390 89.370,76.253 89.863,76.408 89.863 C 76.563 89.863,77.189 88.885,77.799 87.690 C 78.409 86.494,79.400 85.253,80.002 84.931 C 81.634 84.057,81.367 85.132,79.395 87.378 C 77.470 89.571,77.509 89.654,79.916 88.453 C 82.628 87.100,84.016 87.719,81.644 89.223 C 80.589 89.891,79.295 90.332,78.768 90.202 C 78.241 90.072,77.671 90.189,77.502 90.462 C 77.334 90.735,77.610 90.959,78.117 90.959 C 78.914 90.959,78.937 91.085,78.286 91.892 C 77.578 92.770,77.613 92.770,78.889 91.892 C 80.679 90.659,85.219 90.569,83.594 91.798 C 83.009 92.241,81.852 92.603,81.023 92.603 C 80.195 92.603,79.364 92.849,79.178 93.151 C 78.971 93.485,79.801 93.699,81.305 93.699 C 82.661 93.699,83.939 93.970,84.144 94.302 C 84.399 94.715,83.676 94.865,81.847 94.779 C 77.148 94.557,75.137 95.294,79.504 95.638 C 81.540 95.798,84.333 98.097,82.451 98.063 C 81.856 98.052,80.753 97.691,80.000 97.260 C 77.769 95.985,77.589 96.318,79.395 98.375 C 81.385 100.641,81.627 101.693,79.953 100.797 C 79.325 100.461,78.343 99.158,77.771 97.901 C 76.786 95.737,76.736 95.703,76.820 97.260 C 76.869 98.164,77.202 99.274,77.561 99.726 C 77.920 100.178,78.337 101.239,78.488 102.084 L 78.763 103.620 77.464 102.400 C 76.749 101.728,76.164 100.729,76.164 100.178 C 76.164 99.628,75.941 99.178,75.668 99.178 C 75.395 99.178,75.278 98.623,75.409 97.945 L 75.647 96.712 75.099 97.952 C 74.725 98.799,74.740 99.608,75.147 100.502 C 75.552 101.391,75.571 102.311,75.205 103.371 C 74.678 104.898,74.647 104.864,73.733 101.781 C 72.682 98.236,72.239 97.778,72.410 100.411 C 72.473 101.390,72.175 102.808,71.746 103.562 L 70.967 104.932 70.786 103.386 C 70.686 102.536,70.842 101.159,71.132 100.327 C 71.544 99.146,71.492 98.813,70.899 98.813 C 70.480 98.813,70.137 99.251,70.137 99.787 C 70.137 100.862,67.442 104.227,67.415 103.186 C 67.380 101.902,68.591 99.421,70.035 97.817 C 70.844 96.917,70.994 96.610,70.366 97.133 C 69.739 97.656,69.081 97.940,68.904 97.762 C 68.727 97.585,68.325 97.920,68.012 98.506 C 67.208 100.008,64.658 101.643,64.658 100.656 C 64.658 99.903,65.712 98.692,67.671 97.194 C 68.274 96.734,68.459 96.513,68.082 96.704 C 67.705 96.895,67.397 96.782,67.397 96.454 C 67.397 96.126,66.682 96.387,65.807 97.033 C 63.758 98.548,62.566 98.221,64.107 96.567 C 64.790 95.834,65.954 95.317,67.008 95.279 C 67.975 95.244,68.333 95.102,67.802 94.963 C 67.270 94.825,66.976 94.484,67.148 94.207 C 67.324 93.921,66.836 93.939,66.023 94.248 C 64.087 94.984,60.778 94.983,61.918 94.247 C 62.370 93.954,63.541 93.712,64.521 93.707 C 65.500 93.702,66.301 93.452,66.301 93.151 C 66.301 92.849,65.732 92.603,65.036 92.603 C 64.340 92.603,63.292 92.241,62.707 91.798 C 61.734 91.062,61.914 90.998,64.813 91.049 C 68.551 91.114,69.387 90.695,66.457 90.224 C 65.230 90.027,64.102 89.437,63.694 88.781 C 62.784 87.316,63.682 87.317,66.056 88.785 C 67.192 89.487,67.987 89.690,68.207 89.335 C 68.398 89.025,67.952 88.497,67.215 88.161 C 65.905 87.565,64.332 85.074,64.904 84.503 C 65.062 84.344,66.057 85.134,67.116 86.256 C 68.175 87.379,69.041 88.118,69.041 87.899 C 69.041 87.680,69.545 87.957,70.161 88.514 C 71.142 89.402,71.236 89.413,70.924 88.599 C 70.728 88.089,70.376 87.671,70.141 87.671 C 69.485 87.671,68.034 85.226,67.656 83.482 L 67.317 81.918 68.727 83.455 C 69.502 84.301,70.137 85.431,70.137 85.967 C 70.137 86.502,70.485 86.941,70.911 86.941 C 71.501 86.941,71.566 86.629,71.185 85.626 C 70.545 83.943,70.538 81.096,71.173 81.096 C 71.442 81.096,71.849 81.774,72.077 82.603 M60.156 82.233 C 61.697 82.770,63.969 85.255,63.420 85.803 C 62.886 86.338,59.729 84.743,58.940 83.540 C 57.577 81.459,57.664 81.364,60.156 82.233 M88.219 82.060 C 88.219 82.808,85.454 85.479,84.680 85.479 C 84.265 85.479,83.480 85.650,82.935 85.859 C 82.105 86.178,82.149 85.980,83.211 84.626 C 84.969 82.385,88.219 80.720,88.219 82.060 M60.672 88.219 L 62.066 89.315 59.861 89.315 C 58.472 89.315,57.177 88.916,56.362 88.237 L 55.068 87.160 57.174 87.142 C 58.472 87.130,59.813 87.543,60.672 88.219 M89.863 88.219 C 89.024 88.876,87.644 89.291,86.301 89.291 L 84.110 89.291 85.479 88.219 C 86.319 87.563,87.698 87.148,89.041 87.148 L 91.233 87.148 89.863 88.219 M52.742 88.866 L 54.420 90.061 52.368 90.772 C 50.473 91.428,50.166 91.380,48.347 90.144 L 46.377 88.805 47.709 88.273 C 49.790 87.442,50.930 87.576,52.742 88.866 M97.466 88.014 C 99.658 88.452,99.624 88.950,97.302 90.385 C 95.614 91.428,95.247 91.471,93.632 90.812 L 91.838 90.080 93.042 88.876 C 94.337 87.581,94.825 87.486,97.466 88.014 M106.149 92.967 C 106.685 94.575,102.776 95.488,100.671 94.247 L 98.623 93.038 100.681 91.516 L 102.740 89.995 104.354 91.209 C 105.241 91.877,106.049 92.668,106.149 92.967 M45.502 91.610 C 47.189 92.857,47.583 93.699,46.482 93.699 C 46.129 93.699,45.388 94.108,44.835 94.608 C 43.850 95.499,39.479 94.247,39.458 93.068 C 39.426 91.223,43.612 90.213,45.502 91.610 M59.649 92.395 C 60.586 92.583,61.218 92.953,61.055 93.217 C 60.656 93.862,54.247 93.837,54.247 93.191 C 54.247 92.264,56.980 91.862,59.649 92.395 M90.816 92.399 C 91.490 92.579,91.907 92.946,91.742 93.213 C 91.342 93.861,84.932 93.840,84.932 93.191 C 84.932 92.270,88.528 91.786,90.816 92.399 M52.495 94.986 L 54.305 95.641 52.603 96.899 C 51.283 97.876,50.510 98.073,49.150 97.781 C 46.449 97.202,46.361 96.970,48.317 95.587 C 50.419 94.101,50.157 94.139,52.495 94.986 M97.373 95.412 C 99.500 96.727,99.222 97.421,96.391 97.871 C 94.944 98.101,94.226 97.892,93.222 96.947 L 91.923 95.725 93.222 95.005 C 94.962 94.041,95.190 94.063,97.373 95.412 M60.672 97.534 C 59.813 98.210,58.472 98.623,57.174 98.612 L 55.068 98.594 56.362 97.516 C 57.177 96.837,58.472 96.438,59.861 96.438 L 62.066 96.438 60.672 97.534 M89.863 97.534 L 91.233 98.606 89.041 98.606 C 87.698 98.606,86.319 98.191,85.479 97.534 L 84.110 96.463 86.301 96.463 C 87.644 96.463,89.024 96.878,89.863 97.534 M47.545 100.338 L 48.789 100.803 47.545 102.724 C 46.213 104.780,44.904 105.121,42.514 104.032 C 41.338 103.496,41.226 103.240,41.737 102.251 C 43.333 99.157,43.895 98.972,47.545 100.338 M103.459 100.800 C 105.005 102.891,104.969 103.470,103.252 104.123 C 101.033 104.967,99.919 104.759,98.980 103.327 C 97.588 101.202,97.692 100.734,99.726 99.976 C 102.305 99.015,102.107 98.972,103.459 100.800 M63.543 100.137 C 63.505 101.009,61.411 103.025,59.979 103.570 C 58.110 104.280,57.804 104.008,58.729 102.454 C 59.649 100.909,63.593 99.010,63.543 100.137 M84.713 100.297 C 86.218 100.838,88.600 103.363,88.088 103.876 C 87.545 104.419,84.394 102.837,83.598 101.622 C 82.243 99.555,82.337 99.443,84.713 100.297 M55.888 101.781 C 55.877 103.376,53.292 105.277,51.362 105.109 L 49.316 104.932 50.403 103.151 C 51.431 101.467,55.897 100.352,55.888 101.781 M95.533 103.327 L 97.094 105.205 94.886 105.205 C 92.860 105.205,90.411 103.285,90.411 101.696 C 90.411 100.456,94.132 101.641,95.533 103.327 M65.462 104.247 C 65.036 106.249,63.755 107.945,62.668 107.945 C 61.703 107.945,62.644 105.404,64.242 103.699 C 65.766 102.071,65.911 102.136,65.462 104.247 M81.769 103.730 C 82.607 104.416,83.430 105.781,83.641 106.835 L 84.017 108.715 82.419 107.463 C 80.961 106.319,78.990 102.439,79.892 102.485 C 80.102 102.496,80.947 103.056,81.769 103.730 M68.391 109.181 L 67.123 110.959 66.951 109.175 C 66.836 107.978,67.197 106.805,68.047 105.613 L 69.315 103.836 69.487 105.620 C 69.602 106.816,69.241 107.989,68.391 109.181 M78.892 108.441 C 78.904 110.272,78.884 110.288,77.808 109.315 C 77.047 108.626,76.716 107.639,76.725 106.079 L 76.737 103.836 77.808 105.205 C 78.398 105.959,78.885 107.415,78.892 108.441 M73.837 109.726 C 73.192 111.597,72.991 111.604,72.299 109.784 C 71.913 108.770,71.944 107.742,72.400 106.359 L 73.053 104.384 73.704 106.301 C 74.145 107.599,74.188 108.707,73.837 109.726 M59.142 108.360 C 58.622 109.854,54.638 112.354,53.921 111.637 C 53.238 110.954,55.858 107.660,57.534 107.094 C 59.884 106.301,59.865 106.286,59.142 108.360 M90.768 108.047 C 91.427 108.560,92.268 111.203,91.892 111.579 C 90.772 112.698,86.575 108.959,86.575 106.842 C 86.575 106.326,89.715 107.228,90.768 108.047 M51.255 110.274 C 50.565 112.622,47.897 113.870,46.517 112.489 C 45.069 111.042,47.141 107.945,49.557 107.945 L 51.939 107.945 51.255 110.274 M99.103 108.904 C 100.510 111.543,100.130 112.593,97.706 112.770 C 95.252 112.948,94.769 112.512,94.038 109.452 C 93.588 107.568,98.129 107.077,99.103 108.904 M63.222 115.137 C 61.223 117.223,60.822 117.127,60.822 114.560 C 60.822 112.785,61.133 112.163,62.603 111.009 L 64.384 109.610 64.558 111.586 C 64.694 113.137,64.408 113.900,63.222 115.137 M83.397 110.842 C 84.849 112.033,86.239 116.716,85.139 116.710 C 83.493 116.700,81.368 113.975,81.336 111.833 C 81.296 109.252,81.399 109.203,83.397 110.842 M70.952 113.939 C 71.295 115.501,70.236 118.440,69.071 119.160 C 67.774 119.961,67.300 115.100,68.509 113.402 C 69.841 111.532,70.452 111.667,70.952 113.939 M77.682 113.482 C 78.808 115.260,78.373 119.866,77.151 119.111 C 75.567 118.132,74.692 115.590,75.287 113.692 C 76.020 111.347,76.314 111.322,77.682 113.482 M58.082 116.111 C 58.082 118.848,56.832 120.000,53.861 120.000 C 51.747 120.000,53.285 114.931,55.616 114.214 C 56.822 113.843,57.870 113.514,57.945 113.482 C 58.021 113.451,58.082 114.633,58.082 116.111 M93.151 117.586 C 93.151 120.228,92.836 120.406,89.945 119.398 C 88.330 118.835,88.219 118.627,88.219 116.144 L 88.219 113.491 90.685 114.331 C 93.107 115.157,93.151 115.214,93.151 117.586 M65.643 119.628 C 66.511 122.027,66.473 122.740,65.479 122.740 C 65.027 122.740,64.658 122.960,64.658 123.229 C 64.658 124.071,62.850 124.456,62.368 123.717 C 61.093 121.767,61.220 120.435,62.803 119.140 C 64.840 117.475,64.866 117.479,65.643 119.628 M83.086 118.949 C 85.180 120.243,85.255 120.525,84.096 122.767 C 83.101 124.690,83.276 124.663,80.906 123.265 L 79.010 122.146 79.862 119.977 C 80.858 117.442,80.720 117.486,83.086 118.949 M74.847 124.080 C 73.167 126.262,72.797 126.284,71.404 124.292 L 70.205 122.577 71.648 120.686 L 73.090 118.795 74.590 120.630 L 76.090 122.466 74.847 124.080 " stroke="none" fill="#ffffff" fill-rule="evenodd"></path></g></svg>