<svg width="41" height="22" viewBox="0 0 41 22" fill="none" xmlns="http://www.w3.org/2000/svg">
<path d="M7.30731 12.6267C9.15462 12.6267 10.666 11.1152 10.666 9.26793C10.666 7.42062 9.15462 5.90919 7.30731 5.90919C5.46001 5.90919 3.94858 7.42062 3.94858 9.26793C3.94858 11.1152 5.46001 12.6267 7.30731 12.6267ZM9.205 14.474C8.58363 14.3732 7.96226 14.306 7.30731 14.306C5.64474 14.306 4.06613 14.6587 2.63867 15.2801C1.39594 15.8175 0.589844 17.0266 0.589844 18.3869V21.0235H8.147V18.3197C8.147 16.9258 8.53325 15.6159 9.205 14.474ZM34.1772 12.6267C36.0245 12.6267 37.5359 11.1152 37.5359 9.26793C37.5359 7.42062 36.0245 5.90919 34.1772 5.90919C32.3299 5.90919 30.8184 7.42062 30.8184 9.26793C30.8184 11.1152 32.3299 12.6267 34.1772 12.6267ZM40.8946 18.3869C40.8946 17.0266 40.0886 15.8175 38.8458 15.2801C37.4184 14.6587 35.8398 14.306 34.1772 14.306C33.5222 14.306 32.9009 14.3732 32.2795 14.474C32.9512 15.6159 33.3375 16.9258 33.3375 18.3197V21.0235H40.8946V18.3869ZM27.8628 13.7182C25.8979 12.845 23.4796 12.2068 20.7422 12.2068C18.0049 12.2068 15.5866 12.8618 13.6217 13.7182C11.808 14.5243 10.666 16.3381 10.666 18.3197V21.0235H30.8184V18.3197C30.8184 16.3381 29.6765 14.5243 27.8628 13.7182ZM14.1423 17.6648C14.2935 17.2785 14.3607 17.0098 15.6706 16.506C17.2995 15.8678 19.0125 15.5656 20.7422 15.5656C22.472 15.5656 24.1849 15.8678 25.8139 16.506C27.107 17.0098 27.1742 17.2785 27.3422 17.6648H14.1423ZM20.7422 4.22983C21.6659 4.22983 22.4216 4.98554 22.4216 5.90919C22.4216 6.83285 21.6659 7.58856 20.7422 7.58856C19.8186 7.58856 19.0629 6.83285 19.0629 5.90919C19.0629 4.98554 19.8186 4.22983 20.7422 4.22983ZM20.7422 0.871094C17.9545 0.871094 15.7041 3.12145 15.7041 5.90919C15.7041 8.69694 17.9545 10.9473 20.7422 10.9473C23.53 10.9473 25.7803 8.69694 25.7803 5.90919C25.7803 3.12145 23.53 0.871094 20.7422 0.871094Z" fill="white"/>
</svg>
